<?xml version="1.0" encoding="UTF-8"?>
<svg id="Layer_1" data-name="Layer 1" xmlns="http://www.w3.org/2000/svg" xmlns:xlink="http://www.w3.org/1999/xlink" viewBox="0 0 200 200">
  <defs>
    <style>
      .cls-1 {
        font-family: Yunan, Yunan;
      }

      .cls-1, .cls-2, .cls-3, .cls-4, .cls-5, .cls-6, .cls-7 {
        font-size: 12.03px;
      }

      .cls-1, .cls-2, .cls-5, .cls-8, .cls-9 {
        fill: #231f20;
      }

      .cls-2, .cls-3, .cls-4, .cls-9 {
        font-family: BlatantRegular, Blatant;
      }

      .cls-10 {
        fill: url(#linear-gradient);
      }

      .cls-10, .cls-11, .cls-12 {
        stroke-width: 0px;
      }

      .cls-3, .cls-6, .cls-7 {
        fill: #191717;
      }

      .cls-4 {
        fill: #be1e2d;
      }

      .cls-5, .cls-7 {
        font-family: BrenlyVariable-Regular, 'Brenly Variable';
        font-variation-settings: 'slnt' 0;
      }

      .cls-8 {
        font-family: Ragyola, Ragyola;
        font-size: 14px;
      }

      .cls-11 {
        fill: #fff;
      }

      .cls-9 {
        font-size: 11.92px;
      }

      .cls-12 {
        fill: url(#linear-gradient-2);
      }

      .cls-6 {
        font-family: BROLIMO-Regular, BROLIMO;
      }

      .cls-13 {
        fill: none;
        stroke: #fff;
        stroke-miterlimit: 10;
        stroke-width: 1.5px;
      }
    </style>
    <linearGradient id="linear-gradient" x1="174.25" y1="46.32" x2="191.43" y2="64.7" gradientUnits="userSpaceOnUse">
      <stop offset=".28" stop-color="#2951a3"/>
      <stop offset=".86" stop-color="#578cc9"/>
    </linearGradient>
    <linearGradient id="linear-gradient-2" x1="35.31" y1="167.2" x2="52.49" y2="185.58" xlink:href="#linear-gradient"/>
  </defs>
  <text class="cls-2" transform="translate(-867.56 -669.08) rotate(15.14)"><tspan x="0" y="0">S</tspan></text>
  <text class="cls-2" transform="translate(-857.06 -666.67) rotate(7.22)"><tspan x="0" y="0">I</tspan></text>
  <text class="cls-2" transform="translate(-850.82 -665.97) rotate(-.81)"><tspan x="0" y="0">D</tspan></text>
  <text class="cls-2" transform="translate(-839.58 -666.49) rotate(-11.18)"><tspan x="0" y="0">D</tspan></text>
  <text class="cls-2" transform="translate(-828.59 -669.02) rotate(-21.59)"><tspan x="0" y="0">H</tspan></text>
  <text class="cls-2" transform="translate(-818.29 -673.56) rotate(-29.63)"><tspan x="0" y="0">I</tspan></text>
  <text class="cls-2" transform="translate(-813.06 -676.73) rotate(-35.65)"><tspan x="0" y="0"> </tspan></text>
  <text class="cls-2" transform="translate(-807.32 -681.02) rotate(-44.02)"><tspan x="0" y="0">P</tspan></text>
  <text class="cls-2" transform="translate(-800.04 -688.44) rotate(-53.6)"><tspan x="0" y="0">A</tspan></text>
  <text class="cls-2" transform="translate(-793.81 -697.45) rotate(-63.77)"><tspan x="0" y="0">R</tspan></text>
  <text class="cls-2" transform="translate(-789.17 -707.63) rotate(-74.14)"><tspan x="0" y="0">K</tspan></text>
  <text class="cls-2" transform="translate(-786.38 -718.86) rotate(-84.57)"><tspan x="0" y="0">A</tspan></text>
  <text class="cls-2" transform="translate(-785.69 -729.79) rotate(-94.82)"><tspan x="0" y="0">R</tspan></text>
  <text class="cls-8" transform="translate(-703.94 -374.39) rotate(15.23)"><tspan x="0" y="0">S</tspan></text>
  <text class="cls-8" transform="translate(-693.1 -371.94) rotate(6.74)"><tspan x="0" y="0">I</tspan></text>
  <text class="cls-8" transform="translate(-685.93 -371.27) rotate(-1.88)"><tspan x="0" y="0">D</tspan></text>
  <text class="cls-8" transform="translate(-674.28 -372.11) rotate(-12.64)"><tspan x="0" y="0">D</tspan></text>
  <text class="cls-8" transform="translate(-663 -375.08) rotate(-23.54)"><tspan x="0" y="0">H</tspan></text>
  <text class="cls-8" transform="translate(-652.3 -380.31) rotate(-32.32)"><tspan x="0" y="0">I</tspan></text>
  <text class="cls-8" transform="translate(-646.44 -384.29) rotate(-39.6)"><tspan x="0" y="0"> </tspan></text>
  <text class="cls-8" transform="translate(-639.75 -390.19) rotate(-48.98)"><tspan x="0" y="0">P</tspan></text>
  <text class="cls-8" transform="translate(-633.25 -398.11) rotate(-58.52)"><tspan x="0" y="0">A</tspan></text>
  <text class="cls-8" transform="translate(-627.57 -408.2) rotate(-69.19)"><tspan x="0" y="0">R</tspan></text>
  <text class="cls-8" transform="translate(-623.78 -419.47) rotate(-80.01)"><tspan x="0" y="0">K</tspan></text>
  <text class="cls-8" transform="translate(-622.22 -430.95) rotate(-90.77)"><tspan x="0" y="0">A</tspan></text>
  <text class="cls-8" transform="translate(-622.81 -442.55) rotate(-101.61)"><tspan x="0" y="0">R</tspan></text>
  <text class="cls-2" transform="translate(-927.6 -523.66) rotate(15.14)"><tspan x="0" y="0">S</tspan></text>
  <text class="cls-2" transform="translate(-917.09 -521.24) rotate(7.22)"><tspan x="0" y="0">I</tspan></text>
  <text class="cls-2" transform="translate(-910.85 -520.55) rotate(-.81)"><tspan x="0" y="0">D</tspan></text>
  <text class="cls-2" transform="translate(-899.61 -521.06) rotate(-11.18)"><tspan x="0" y="0">D</tspan></text>
  <text class="cls-2" transform="translate(-888.63 -523.59) rotate(-21.59)"><tspan x="0" y="0">H</tspan></text>
  <text class="cls-2" transform="translate(-878.33 -528.14) rotate(-29.63)"><tspan x="0" y="0">I</tspan></text>
  <text class="cls-2" transform="translate(-873.09 -531.31) rotate(-35.65)"><tspan x="0" y="0"> </tspan></text>
  <text class="cls-2" transform="translate(-867.35 -535.59) rotate(-44.02)"><tspan x="0" y="0">P</tspan></text>
  <text class="cls-2" transform="translate(-860.07 -543.02) rotate(-53.6)"><tspan x="0" y="0">A</tspan></text>
  <text class="cls-2" transform="translate(-853.85 -552.03) rotate(-63.77)"><tspan x="0" y="0">R</tspan></text>
  <text class="cls-2" transform="translate(-849.21 -562.21) rotate(-74.14)"><tspan x="0" y="0">K</tspan></text>
  <text class="cls-2" transform="translate(-846.41 -573.44) rotate(-84.57)"><tspan x="0" y="0">A</tspan></text>
  <text class="cls-2" transform="translate(-845.72 -584.36) rotate(-94.82)"><tspan x="0" y="0">R</tspan></text>
  <text class="cls-9" transform="translate(-1010.29 -673.74) rotate(15.14)"><tspan x="0" y="0">S</tspan></text>
  <text class="cls-9" transform="translate(-999.88 -671.34) rotate(7.22)"><tspan x="0" y="0">I</tspan></text>
  <text class="cls-9" transform="translate(-993.68 -670.65) rotate(-.84)"><tspan x="0" y="0">D</tspan></text>
  <text class="cls-9" transform="translate(-982.52 -671.17) rotate(-11.22)"><tspan x="0" y="0">D</tspan></text>
  <text class="cls-9" transform="translate(-971.66 -673.68) rotate(-21.61)"><tspan x="0" y="0">H</tspan></text>
  <text class="cls-9" transform="translate(-961.46 -678.19) rotate(-29.66)"><tspan x="0" y="0">I</tspan></text>
  <text class="cls-9" transform="translate(-956.26 -681.34) rotate(-35.69)"><tspan x="0" y="0"> </tspan></text>
  <text class="cls-9" transform="translate(-950.57 -685.59) rotate(-44.07)"><tspan x="0" y="0">P</tspan></text>
  <text class="cls-9" transform="translate(-943.35 -692.97) rotate(-53.66)"><tspan x="0" y="0">A</tspan></text>
  <text class="cls-9" transform="translate(-937.21 -701.88) rotate(-63.81)"><tspan x="0" y="0">R</tspan></text>
  <text class="cls-9" transform="translate(-932.61 -711.99) rotate(-74.2)"><tspan x="0" y="0">K</tspan></text>
  <text class="cls-9" transform="translate(-929.86 -723.14) rotate(-84.66)"><tspan x="0" y="0">A</tspan></text>
  <text class="cls-9" transform="translate(-929.18 -733.96) rotate(-94.9)"><tspan x="0" y="0">R</tspan></text>
  <text class="cls-2" transform="translate(-1072.72 -525.28) rotate(15.14)"><tspan x="0" y="0">S</tspan></text>
  <text class="cls-2" transform="translate(-1062.22 -522.87) rotate(7.22)"><tspan x="0" y="0">I</tspan></text>
  <text class="cls-2" transform="translate(-1055.98 -522.17) rotate(-.81)"><tspan x="0" y="0">D</tspan></text>
  <text class="cls-2" transform="translate(-1044.74 -522.69) rotate(-11.18)"><tspan x="0" y="0">D</tspan></text>
  <text class="cls-2" transform="translate(-1033.75 -525.22) rotate(-21.59)"><tspan x="0" y="0">H</tspan></text>
  <text class="cls-2" transform="translate(-1023.45 -529.77) rotate(-29.63)"><tspan x="0" y="0">I</tspan></text>
  <text class="cls-2" transform="translate(-1018.22 -532.93) rotate(-35.65)"><tspan x="0" y="0"> </tspan></text>
  <text class="cls-2" transform="translate(-1012.48 -537.22) rotate(-44.02)"><tspan x="0" y="0">P</tspan></text>
  <text class="cls-2" transform="translate(-1005.2 -544.64) rotate(-53.6)"><tspan x="0" y="0">A</tspan></text>
  <text class="cls-2" transform="translate(-998.97 -553.65) rotate(-63.77)"><tspan x="0" y="0">R</tspan></text>
  <text class="cls-2" transform="translate(-994.33 -563.84) rotate(-74.14)"><tspan x="0" y="0">K</tspan></text>
  <text class="cls-2" transform="translate(-991.54 -575.07) rotate(-84.57)"><tspan x="0" y="0">A</tspan></text>
  <text class="cls-2" transform="translate(-990.85 -585.99) rotate(-94.82)"><tspan x="0" y="0">R</tspan></text>
  <text class="cls-2" transform="translate(-778.84 -519.48) rotate(15.14)"><tspan x="0" y="0">S</tspan></text>
  <text class="cls-2" transform="translate(-768.34 -517.07) rotate(7.22)"><tspan x="0" y="0">I</tspan></text>
  <text class="cls-2" transform="translate(-762.1 -516.37) rotate(-.81)"><tspan x="0" y="0">D</tspan></text>
  <text class="cls-2" transform="translate(-750.86 -516.89) rotate(-11.18)"><tspan x="0" y="0">D</tspan></text>
  <text class="cls-2" transform="translate(-739.87 -519.42) rotate(-21.59)"><tspan x="0" y="0">H</tspan></text>
  <text class="cls-2" transform="translate(-729.57 -523.96) rotate(-29.63)"><tspan x="0" y="0">I</tspan></text>
  <text class="cls-2" transform="translate(-724.34 -527.13) rotate(-35.65)"><tspan x="0" y="0"> </tspan></text>
  <text class="cls-2" transform="translate(-718.6 -531.42) rotate(-44.02)"><tspan x="0" y="0">P</tspan></text>
  <text class="cls-2" transform="translate(-711.32 -538.84) rotate(-53.6)"><tspan x="0" y="0">A</tspan></text>
  <text class="cls-2" transform="translate(-705.1 -547.85) rotate(-63.77)"><tspan x="0" y="0">R</tspan></text>
  <text class="cls-2" transform="translate(-700.45 -558.03) rotate(-74.14)"><tspan x="0" y="0">K</tspan></text>
  <text class="cls-2" transform="translate(-697.66 -569.27) rotate(-84.57)"><tspan x="0" y="0">A</tspan></text>
  <text class="cls-2" transform="translate(-696.97 -580.19) rotate(-94.82)"><tspan x="0" y="0">R</tspan></text>
  <text class="cls-4" transform="translate(-638.27 -516.09) rotate(15.14)"><tspan x="0" y="0">S</tspan></text>
  <text class="cls-4" transform="translate(-627.76 -513.68) rotate(7.22)"><tspan x="0" y="0">I</tspan></text>
  <text class="cls-4" transform="translate(-621.52 -512.98) rotate(-.81)"><tspan x="0" y="0">D</tspan></text>
  <text class="cls-4" transform="translate(-610.28 -513.5) rotate(-11.18)"><tspan x="0" y="0">D</tspan></text>
  <text class="cls-4" transform="translate(-599.3 -516.03) rotate(-21.59)"><tspan x="0" y="0">H</tspan></text>
  <text class="cls-4" transform="translate(-589 -520.58) rotate(-29.63)"><tspan x="0" y="0">I</tspan></text>
  <text class="cls-4" transform="translate(-583.76 -523.74) rotate(-35.65)"><tspan x="0" y="0"> </tspan></text>
  <text class="cls-4" transform="translate(-578.02 -528.03) rotate(-44.02)"><tspan x="0" y="0">P</tspan></text>
  <text class="cls-4" transform="translate(-570.74 -535.45) rotate(-53.6)"><tspan x="0" y="0">A</tspan></text>
  <text class="cls-4" transform="translate(-564.52 -544.46) rotate(-63.77)"><tspan x="0" y="0">R</tspan></text>
  <text class="cls-4" transform="translate(-559.88 -554.65) rotate(-74.14)"><tspan x="0" y="0">K</tspan></text>
  <text class="cls-4" transform="translate(-557.08 -565.88) rotate(-84.57)"><tspan x="0" y="0">A</tspan></text>
  <text class="cls-4" transform="translate(-556.39 -576.8) rotate(-94.82)"><tspan x="0" y="0">R</tspan></text>
  <text class="cls-3" transform="translate(-501.42 -516.09) rotate(15.14)"><tspan x="0" y="0">S</tspan></text>
  <text class="cls-3" transform="translate(-490.91 -513.68) rotate(7.22)"><tspan x="0" y="0">I</tspan></text>
  <text class="cls-3" transform="translate(-484.67 -512.98) rotate(-.81)"><tspan x="0" y="0">D</tspan></text>
  <text class="cls-3" transform="translate(-473.43 -513.5) rotate(-11.18)"><tspan x="0" y="0">D</tspan></text>
  <text class="cls-3" transform="translate(-462.45 -516.03) rotate(-21.59)"><tspan x="0" y="0">H</tspan></text>
  <text class="cls-3" transform="translate(-452.15 -520.58) rotate(-29.63)"><tspan x="0" y="0">I</tspan></text>
  <text class="cls-3" transform="translate(-446.91 -523.74) rotate(-35.65)"><tspan x="0" y="0"> </tspan></text>
  <text class="cls-3" transform="translate(-441.17 -528.03) rotate(-44.02)"><tspan x="0" y="0">P</tspan></text>
  <text class="cls-3" transform="translate(-433.89 -535.45) rotate(-53.6)"><tspan x="0" y="0">A</tspan></text>
  <text class="cls-3" transform="translate(-427.67 -544.46) rotate(-63.77)"><tspan x="0" y="0">R</tspan></text>
  <text class="cls-3" transform="translate(-423.02 -554.65) rotate(-74.14)"><tspan x="0" y="0">K</tspan></text>
  <text class="cls-3" transform="translate(-420.23 -565.88) rotate(-84.57)"><tspan x="0" y="0">A</tspan></text>
  <text class="cls-3" transform="translate(-419.54 -576.8) rotate(-94.82)"><tspan x="0" y="0">R</tspan></text>
  <text class="cls-3" transform="translate(87.17 -606.95) rotate(15.14)"><tspan x="0" y="0">S</tspan></text>
  <text class="cls-3" transform="translate(97.67 -604.54) rotate(7.22)"><tspan x="0" y="0">I</tspan></text>
  <text class="cls-3" transform="translate(103.92 -603.84) rotate(-.81)"><tspan x="0" y="0">D</tspan></text>
  <text class="cls-3" transform="translate(115.16 -604.36) rotate(-11.18)"><tspan x="0" y="0">D</tspan></text>
  <text class="cls-3" transform="translate(126.14 -606.89) rotate(-21.59)"><tspan x="0" y="0">H</tspan></text>
  <text class="cls-3" transform="translate(136.44 -611.43) rotate(-29.63)"><tspan x="0" y="0">I</tspan></text>
  <text class="cls-3" transform="translate(141.68 -614.6) rotate(-35.65)"><tspan x="0" y="0"> </tspan></text>
  <text class="cls-3" transform="translate(147.42 -618.89) rotate(-44.02)"><tspan x="0" y="0">P</tspan></text>
  <text class="cls-3" transform="translate(154.7 -626.31) rotate(-53.6)"><tspan x="0" y="0">A</tspan></text>
  <text class="cls-3" transform="translate(160.92 -635.32) rotate(-63.77)"><tspan x="0" y="0">R</tspan></text>
  <text class="cls-3" transform="translate(165.56 -645.5) rotate(-74.14)"><tspan x="0" y="0">K</tspan></text>
  <text class="cls-3" transform="translate(168.35 -656.73) rotate(-84.57)"><tspan x="0" y="0">A</tspan></text>
  <text class="cls-3" transform="translate(169.05 -667.66) rotate(-94.82)"><tspan x="0" y="0">R</tspan></text>
  <text class="cls-7" transform="translate(-501.8 -364.84) rotate(12.15)"><tspan x="0" y="0">S</tspan></text>
  <text class="cls-7" transform="translate(-491.5 -363.03) rotate(4.83)"><tspan x="0" y="0">I</tspan></text>
  <text class="cls-7" transform="translate(-486.16 -362.66) rotate(-2.45)"><tspan x="0" y="0">D</tspan></text>
  <text class="cls-7" transform="translate(-475.63 -363.45) rotate(-12.2)"><tspan x="0" y="0">D</tspan></text>
  <text class="cls-7" transform="translate(-465.41 -366.01) rotate(-21.73)"><tspan x="0" y="0">H</tspan></text>
  <text class="cls-7" transform="translate(-456.22 -370.08) rotate(-28.77)"><tspan x="0" y="0">I</tspan></text>
  <text class="cls-7" transform="translate(-451.77 -372.67) rotate(-34.15)"><tspan x="0" y="0"> </tspan></text>
  <text class="cls-7" transform="translate(-446.21 -376.62) rotate(-41.94)"><tspan x="0" y="0">P</tspan></text>
  <text class="cls-7" transform="translate(-440.47 -381.79) rotate(-50.21)"><tspan x="0" y="0">A</tspan></text>
  <text class="cls-7" transform="translate(-432.67 -391.93) rotate(-61.15)"><tspan x="0" y="0">R</tspan></text>
  <text class="cls-7" transform="translate(-427.79 -401.47) rotate(-70.95)"><tspan x="0" y="0">K</tspan></text>
  <text class="cls-7" transform="translate(-424.51 -411.9) rotate(-81.87)"><tspan x="0" y="0">A</tspan></text>
  <text class="cls-7" transform="translate(-423.18 -424.63) rotate(-92.82)"><tspan x="0" y="0">R</tspan></text>
  <text class="cls-6" transform="translate(-501.79 -224.2) rotate(15.37)"><tspan x="0" y="0">S</tspan></text>
  <text class="cls-6" transform="translate(-491.05 -221.7) rotate(7.48)"><tspan x="0" y="0">I</tspan></text>
  <text class="cls-6" transform="translate(-484.89 -220.96) rotate(-1.06)"><tspan x="0" y="0">D</tspan></text>
  <text class="cls-6" transform="translate(-472.29 -221.64) rotate(-12.68)"><tspan x="0" y="0">D</tspan></text>
  <text class="cls-6" transform="translate(-460.11 -224.85) rotate(-23.96)"><tspan x="0" y="0">H</tspan></text>
  <text class="cls-6" transform="translate(-449.66 -230.02) rotate(-32.15)"><tspan x="0" y="0">I</tspan></text>
  <text class="cls-6" transform="translate(-444.84 -233.24) rotate(-37.58)"><tspan x="0" y="0"> </tspan></text>
  <text class="cls-6" transform="translate(-439.97 -237.11) rotate(-45.62)"><tspan x="0" y="0">P</tspan></text>
  <text class="cls-6" transform="translate(-433.24 -244.25) rotate(-54.89)"><tspan x="0" y="0">A</tspan></text>
  <text class="cls-6" transform="translate(-426.72 -254.14) rotate(-66.21)"><tspan x="0" y="0">R</tspan></text>
  <text class="cls-6" transform="translate(-422.01 -265.86) rotate(-77.34)"><tspan x="0" y="0">K</tspan></text>
  <text class="cls-6" transform="translate(-419.8 -277.43) rotate(-88.21)"><tspan x="0" y="0">A</tspan></text>
  <text class="cls-6" transform="translate(-419.8 -289.28) rotate(-99.59)"><tspan x="0" y="0">R</tspan></text>
  <text class="cls-6" transform="translate(-150.06 -260.46) rotate(17.4)"><tspan x="0" y="0">S</tspan></text>
  <text class="cls-6" transform="translate(-139.42 -257.58) rotate(9.51)"><tspan x="0" y="0">I</tspan></text>
  <text class="cls-6" transform="translate(-133.29 -256.62) rotate(.97)"><tspan x="0" y="0">D</tspan></text>
  <text class="cls-6" transform="translate(-120.67 -256.86) rotate(-10.65)"><tspan x="0" y="0">D</tspan></text>
  <text class="cls-6" transform="translate(-108.38 -259.63) rotate(-21.93)"><tspan x="0" y="0">H</tspan></text>
  <text class="cls-6" transform="translate(-97.76 -264.43) rotate(-30.12)"><tspan x="0" y="0">I</tspan></text>
  <text class="cls-6" transform="translate(-92.85 -267.46) rotate(-35.53)"><tspan x="0" y="0"> </tspan></text>
  <text class="cls-6" transform="translate(-87.82 -271.17) rotate(-43.59)"><tspan x="0" y="0">P</tspan></text>
  <text class="cls-6" transform="translate(-80.84 -278.07) rotate(-52.86)"><tspan x="0" y="0">A</tspan></text>
  <text class="cls-6" transform="translate(-73.98 -287.73) rotate(-64.19)"><tspan x="0" y="0">R</tspan></text>
  <text class="cls-6" transform="translate(-68.86 -299.27) rotate(-75.31)"><tspan x="0" y="0">K</tspan></text>
  <text class="cls-6" transform="translate(-66.24 -310.75) rotate(-86.18)"><tspan x="0" y="0">A</tspan></text>
  <text class="cls-6" transform="translate(-65.82 -322.6) rotate(-97.56)"><tspan x="0" y="0">R</tspan></text>
  <text class="cls-3" transform="translate(-357.08 -505.54) rotate(15.14)"><tspan x="0" y="0">S</tspan></text>
  <text class="cls-3" transform="translate(-346.57 -503.13) rotate(7.22)"><tspan x="0" y="0">I</tspan></text>
  <text class="cls-3" transform="translate(-340.33 -502.43) rotate(-.81)"><tspan x="0" y="0">D</tspan></text>
  <text class="cls-3" transform="translate(-329.09 -502.95) rotate(-11.18)"><tspan x="0" y="0">D</tspan></text>
  <text class="cls-3" transform="translate(-318.1 -505.48) rotate(-21.59)"><tspan x="0" y="0">H</tspan></text>
  <text class="cls-3" transform="translate(-307.8 -510.02) rotate(-29.63)"><tspan x="0" y="0">I</tspan></text>
  <text class="cls-3" transform="translate(-302.57 -513.19) rotate(-35.65)"><tspan x="0" y="0"> </tspan></text>
  <text class="cls-3" transform="translate(-296.83 -517.48) rotate(-44.02)"><tspan x="0" y="0">P</tspan></text>
  <text class="cls-3" transform="translate(-289.55 -524.9) rotate(-53.6)"><tspan x="0" y="0">A</tspan></text>
  <text class="cls-3" transform="translate(-283.33 -533.91) rotate(-63.77)"><tspan x="0" y="0">R</tspan></text>
  <text class="cls-3" transform="translate(-278.68 -544.09) rotate(-74.14)"><tspan x="0" y="0">K</tspan></text>
  <text class="cls-3" transform="translate(-275.89 -555.32) rotate(-84.57)"><tspan x="0" y="0">A</tspan></text>
  <text class="cls-3" transform="translate(-275.2 -566.25) rotate(-94.82)"><tspan x="0" y="0">R</tspan></text>
  <text class="cls-3" transform="translate(-397.12 -562.49) rotate(-85.32)"><tspan x="0" y="0">U</tspan></text>
  <text class="cls-3" transform="translate(-395.92 -573.38) rotate(-75.47)"><tspan x="0" y="0">X</tspan></text>
  <text class="cls-3" transform="translate(-392.87 -583.63) rotate(-67.35)"><tspan x="0" y="0"> </tspan></text>
  <text class="cls-3" transform="translate(-390.13 -589.91) rotate(-59.17)"><tspan x="0" y="0">D</tspan></text>
  <text class="cls-3" transform="translate(-384.35 -598.98) rotate(-49.61)"><tspan x="0" y="0">E</tspan></text>
  <text class="cls-3" transform="translate(-377.68 -606.41) rotate(-40.23)"><tspan x="0" y="0">S</tspan></text>
  <text class="cls-3" transform="translate(-369.43 -612.9) rotate(-32.67)"><tspan x="0" y="0">I</tspan></text>
  <text class="cls-3" transform="translate(-364.33 -616.12) rotate(-24.44)"><tspan x="0" y="0">G</tspan></text>
  <text class="cls-3" transform="translate(-353.42 -620.69) rotate(-13.91)"><tspan x="0" y="0">N</tspan></text>
  <text class="cls-3" transform="translate(-342.72 -623) rotate(-4.22)"><tspan x="0" y="0">E</tspan></text>
  <text class="cls-3" transform="translate(-332.73 -623.47) rotate(5.2)"><tspan x="0" y="0">R</tspan></text>
  <text class="cls-3" transform="translate(-358.42 -348.68) rotate(15.14)"><tspan x="0" y="0">S</tspan></text>
  <text class="cls-3" transform="translate(-347.92 -346.26) rotate(7.22)"><tspan x="0" y="0">I</tspan></text>
  <text class="cls-3" transform="translate(-341.68 -345.57) rotate(-.81)"><tspan x="0" y="0">D</tspan></text>
  <text class="cls-3" transform="translate(-330.44 -346.08) rotate(-11.18)"><tspan x="0" y="0">D</tspan></text>
  <text class="cls-3" transform="translate(-319.45 -348.61) rotate(-21.59)"><tspan x="0" y="0">H</tspan></text>
  <text class="cls-3" transform="translate(-309.15 -353.16) rotate(-29.63)"><tspan x="0" y="0">I</tspan></text>
  <text class="cls-3" transform="translate(-303.92 -356.33) rotate(-35.65)"><tspan x="0" y="0"> </tspan></text>
  <text class="cls-3" transform="translate(-298.18 -360.61) rotate(-44.02)"><tspan x="0" y="0">P</tspan></text>
  <text class="cls-3" transform="translate(-290.89 -368.04) rotate(-53.6)"><tspan x="0" y="0">A</tspan></text>
  <text class="cls-3" transform="translate(-284.67 -377.05) rotate(-63.77)"><tspan x="0" y="0">R</tspan></text>
  <text class="cls-3" transform="translate(-280.03 -387.23) rotate(-74.14)"><tspan x="0" y="0">K</tspan></text>
  <text class="cls-3" transform="translate(-277.24 -398.46) rotate(-84.57)"><tspan x="0" y="0">A</tspan></text>
  <text class="cls-3" transform="translate(-276.54 -409.38) rotate(-94.82)"><tspan x="0" y="0">R</tspan></text>
  <text class="cls-3" transform="translate(-398.46 -405.63) rotate(-85.32)"><tspan x="0" y="0">U</tspan></text>
  <text class="cls-3" transform="translate(-397.27 -416.52) rotate(-75.47)"><tspan x="0" y="0">X</tspan></text>
  <text class="cls-3" transform="translate(-394.22 -426.77) rotate(-67.35)"><tspan x="0" y="0"> </tspan></text>
  <text class="cls-3" transform="translate(-391.48 -433.04) rotate(-59.17)"><tspan x="0" y="0">D</tspan></text>
  <text class="cls-3" transform="translate(-385.69 -442.12) rotate(-49.61)"><tspan x="0" y="0">E</tspan></text>
  <text class="cls-3" transform="translate(-379.02 -449.55) rotate(-40.23)"><tspan x="0" y="0">S</tspan></text>
  <text class="cls-3" transform="translate(-370.77 -456.04) rotate(-32.67)"><tspan x="0" y="0">I</tspan></text>
  <text class="cls-3" transform="translate(-365.67 -459.26) rotate(-24.44)"><tspan x="0" y="0">G</tspan></text>
  <text class="cls-3" transform="translate(-354.76 -463.83) rotate(-13.91)"><tspan x="0" y="0">N</tspan></text>
  <text class="cls-3" transform="translate(-344.06 -466.14) rotate(-4.22)"><tspan x="0" y="0">E</tspan></text>
  <text class="cls-3" transform="translate(-334.08 -466.61) rotate(5.2)"><tspan x="0" y="0">R</tspan></text>
  <g>
    <text class="cls-2" transform="translate(-715.72 -669.08) rotate(15.14)"><tspan x="0" y="0">S</tspan></text>
    <text class="cls-2" transform="translate(-705.22 -666.67) rotate(7.22)"><tspan x="0" y="0">I</tspan></text>
    <text class="cls-2" transform="translate(-698.98 -665.97) rotate(-.81)"><tspan x="0" y="0">D</tspan></text>
    <text class="cls-2" transform="translate(-687.74 -666.49) rotate(-11.18)"><tspan x="0" y="0">D</tspan></text>
    <text class="cls-2" transform="translate(-676.75 -669.02) rotate(-21.59)"><tspan x="0" y="0">H</tspan></text>
    <text class="cls-2" transform="translate(-666.45 -673.56) rotate(-29.63)"><tspan x="0" y="0">I</tspan></text>
    <text class="cls-2" transform="translate(-661.22 -676.73) rotate(-35.65)"><tspan x="0" y="0"> </tspan></text>
    <text class="cls-2" transform="translate(-655.48 -681.02) rotate(-44.02)"><tspan x="0" y="0">P</tspan></text>
    <text class="cls-2" transform="translate(-648.19 -688.44) rotate(-53.6)"><tspan x="0" y="0">A</tspan></text>
    <text class="cls-2" transform="translate(-641.97 -697.45) rotate(-63.77)"><tspan x="0" y="0">R</tspan></text>
    <text class="cls-2" transform="translate(-637.33 -707.63) rotate(-74.14)"><tspan x="0" y="0">K</tspan></text>
    <text class="cls-2" transform="translate(-634.54 -718.86) rotate(-84.57)"><tspan x="0" y="0">A</tspan></text>
    <text class="cls-2" transform="translate(-633.85 -729.79) rotate(-94.82)"><tspan x="0" y="0">R</tspan></text>
  </g>
  <text class="cls-2" transform="translate(-1012.69 -374.42) rotate(15.14)"><tspan x="0" y="0">S</tspan></text>
  <text class="cls-2" transform="translate(-1002.18 -372) rotate(7.22)"><tspan x="0" y="0">I</tspan></text>
  <text class="cls-2" transform="translate(-995.94 -371.31) rotate(-.81)"><tspan x="0" y="0">D</tspan></text>
  <text class="cls-2" transform="translate(-984.7 -371.82) rotate(-11.18)"><tspan x="0" y="0">D</tspan></text>
  <text class="cls-2" transform="translate(-973.72 -374.35) rotate(-21.59)"><tspan x="0" y="0">H</tspan></text>
  <text class="cls-2" transform="translate(-963.42 -378.9) rotate(-29.63)"><tspan x="0" y="0">I</tspan></text>
  <text class="cls-2" transform="translate(-958.18 -382.07) rotate(-35.65)"><tspan x="0" y="0"> </tspan></text>
  <text class="cls-2" transform="translate(-952.44 -386.35) rotate(-44.02)"><tspan x="0" y="0">P</tspan></text>
  <text class="cls-2" transform="translate(-945.16 -393.78) rotate(-53.6)"><tspan x="0" y="0">A</tspan></text>
  <text class="cls-2" transform="translate(-938.94 -402.79) rotate(-63.77)"><tspan x="0" y="0">R</tspan></text>
  <text class="cls-2" transform="translate(-934.3 -412.97) rotate(-74.14)"><tspan x="0" y="0">K</tspan></text>
  <text class="cls-2" transform="translate(-931.51 -424.2) rotate(-84.57)"><tspan x="0" y="0">A</tspan></text>
  <text class="cls-2" transform="translate(-930.81 -435.12) rotate(-94.82)"><tspan x="0" y="0">R</tspan></text>
  <text class="cls-2" transform="translate(-856.43 -378.51) rotate(15.14)"><tspan x="0" y="0">S</tspan></text>
  <text class="cls-2" transform="translate(-845.93 -376.1) rotate(7.22)"><tspan x="0" y="0">I</tspan></text>
  <text class="cls-2" transform="translate(-839.69 -375.41) rotate(-.81)"><tspan x="0" y="0">D</tspan></text>
  <text class="cls-2" transform="translate(-828.45 -375.92) rotate(-11.18)"><tspan x="0" y="0">D</tspan></text>
  <text class="cls-2" transform="translate(-817.46 -378.45) rotate(-21.59)"><tspan x="0" y="0">H</tspan></text>
  <text class="cls-2" transform="translate(-807.16 -383) rotate(-29.63)"><tspan x="0" y="0">I</tspan></text>
  <text class="cls-2" transform="translate(-801.93 -386.17) rotate(-35.65)"><tspan x="0" y="0"> </tspan></text>
  <text class="cls-2" transform="translate(-796.19 -390.45) rotate(-44.02)"><tspan x="0" y="0">P</tspan></text>
  <text class="cls-2" transform="translate(-788.91 -397.87) rotate(-53.6)"><tspan x="0" y="0">A</tspan></text>
  <text class="cls-2" transform="translate(-782.68 -406.89) rotate(-63.77)"><tspan x="0" y="0">R</tspan></text>
  <text class="cls-2" transform="translate(-778.04 -417.07) rotate(-74.14)"><tspan x="0" y="0">K</tspan></text>
  <text class="cls-2" transform="translate(-775.25 -428.3) rotate(-84.57)"><tspan x="0" y="0">A</tspan></text>
  <text class="cls-2" transform="translate(-774.56 -439.22) rotate(-94.82)"><tspan x="0" y="0">R</tspan></text>
  <text class="cls-1" transform="translate(-857.94 -228.19) rotate(12.68)"><tspan x="0" y="0">S</tspan></text>
  <text class="cls-1" transform="translate(-847.47 -226.31) rotate(4.38)"><tspan x="0" y="0">I</tspan></text>
  <text class="cls-1" transform="translate(-840.22 -225.99) rotate(-3.9)"><tspan x="0" y="0">D</tspan></text>
  <text class="cls-1" transform="translate(-829.51 -227.15) rotate(-13.84)"><tspan x="0" y="0">D</tspan></text>
  <text class="cls-1" transform="translate(-819.18 -230.14) rotate(-23.7)"><tspan x="0" y="0">H</tspan></text>
  <text class="cls-1" transform="translate(-809.64 -234.83) rotate(-31.91)"><tspan x="0" y="0">I</tspan></text>
  <text class="cls-1" transform="translate(-803.71 -238.82) rotate(-39.02)"><tspan x="0" y="0"> </tspan></text>
  <text class="cls-1" transform="translate(-797.32 -244.4) rotate(-47.62)"><tspan x="0" y="0">P</tspan></text>
  <text class="cls-1" transform="translate(-791.43 -251.24) rotate(-56.26)"><tspan x="0" y="0">A</tspan></text>
  <text class="cls-1" transform="translate(-785.81 -260.43) rotate(-66.19)"><tspan x="0" y="0">R</tspan></text>
  <text class="cls-1" transform="translate(-781.84 -270.48) rotate(-76.13)"><tspan x="0" y="0">K</tspan></text>
  <text class="cls-1" transform="translate(-779.63 -281.31) rotate(-86.24)"><tspan x="0" y="0">A</tspan></text>
  <text class="cls-1" transform="translate(-779.35 -292.09) rotate(-96.26)"><tspan x="0" y="0">R</tspan></text>
  <text class="cls-5" transform="translate(-698.28 -224.44) rotate(16.16)"><tspan x="0" y="0">S</tspan></text>
  <text class="cls-5" transform="translate(-687.07 -221.75) rotate(7.84)"><tspan x="0" y="0">I</tspan></text>
  <text class="cls-5" transform="translate(-680.69 -221.04) rotate(-.43)"><tspan x="0" y="0">D</tspan></text>
  <text class="cls-5" transform="translate(-669.09 -221.6) rotate(-11.13)"><tspan x="0" y="0">D</tspan></text>
  <text class="cls-5" transform="translate(-657.79 -224.31) rotate(-21.65)"><tspan x="0" y="0">H</tspan></text>
  <text class="cls-5" transform="translate(-647.66 -228.87) rotate(-29.67)"><tspan x="0" y="0">I</tspan></text>
  <text class="cls-5" transform="translate(-642.34 -232.15) rotate(-36.08)"><tspan x="0" y="0"> </tspan></text>
  <text class="cls-5" transform="translate(-636.11 -237) rotate(-44.9)"><tspan x="0" y="0">P</tspan></text>
  <text class="cls-5" transform="translate(-629.95 -243.29) rotate(-54.19)"><tspan x="0" y="0">A</tspan></text>
  <text class="cls-5" transform="translate(-622.37 -254.87) rotate(-65.95)"><tspan x="0" y="0">R</tspan></text>
  <text class="cls-5" transform="translate(-618 -265.83) rotate(-76.82)"><tspan x="0" y="0">K</tspan></text>
  <text class="cls-5" transform="translate(-615.69 -277.63) rotate(-88.83)"><tspan x="0" y="0">A</tspan></text>
  <text class="cls-5" transform="translate(-616.05 -291.47) rotate(-100.7)"><tspan x="0" y="0">R</tspan></text>
  <g>
    <g>
      <path class="cls-11" d="m77.49,192.53c-.5,1.85-2.66,2.64-5.48,1.88-2.82-.76-5.1-2.83-5.1-2.83l1.32-1.49s2.31,1.89,4.1,2.38c1.8.48,2.97.36,3.2-.5.23-.86-.29-1.49-2.97-2.22-2.68-.72-3.9-2.02-3.38-3.94.63-2.32,2.91-2.91,5.72-2.15,2.52.68,3.83,2.01,3.83,2.01l-1.19,1.55s-1.55-1.25-3.32-1.73c-1.77-.48-2.84,0-3.02.66-.18.66-.14,1.19,2.95,2.03,2.72.74,3.82,2.5,3.32,4.35Z"/>
      <path class="cls-11" d="m84.07,196.67l1.36-10.72,2.15.27-1.36,10.72-2.15-.27Z"/>
      <path class="cls-11" d="m104.26,192.11c.05,3.58-1.65,5.43-4.53,5.47l-5.6.08-.15-10.8,5.6-.08c2.89-.04,4.63,1.75,4.68,5.34Zm-2.3.03c-.04-3-.99-3.57-2.35-3.55l-3.44.05.1,7.17,3.44-.05c1.36-.02,2.29-.62,2.25-3.62Z"/>
      <path class="cls-11" d="m121.13,189.38c.7,3.51-.64,5.63-3.47,6.19l-5.5,1.09-2.09-10.6,5.5-1.09c2.83-.56,4.87.89,5.57,4.41Zm-2.26.45c-.58-2.94-1.62-3.33-2.95-3.07l-3.37.67,1.39,7.03,3.37-.67c1.34-.26,2.14-1.02,1.56-3.96Z"/>
      <path class="cls-11" d="m133.24,179.44l2.02-.8,3.97,10.05-2.02.8-1.73-4.37-5.44,2.15,1.73,4.37-2.02.8-3.97-10.05,2.02-.8,1.57,3.98,5.44-2.15-1.57-3.98Z"/>
      <path class="cls-11" d="m146.24,185.01l-5.35-9.39,1.89-1.07,5.35,9.39-1.89,1.07Z"/>
      <path class="cls-11" d="m166.04,160.54c1.1,1.13,2.08,3.29.07,5.23l-3.21,3.1,2.38,2.46-1.56,1.51-7.51-7.77,4.61-4.46c2.17-2.09,4.34-.97,5.21-.07Zm-1.27,1.57c-.48-.5-1.59-1.24-2.67-.19l-3.05,2.95,2.6,2.69,3.21-3.1c.86-.83.4-1.86-.08-2.36Z"/>
      <path class="cls-11" d="m170.34,149.35l11.04,3.23-1.29,1.74-2.43-.71-2.98,4.04,1.4,2.11-1.29,1.74-6.35-9.59,1.9-2.57Zm5.46,3.72l-4.89-1.43-.11.16,2.81,4.25,2.19-2.97Z"/>
      <path class="cls-11" d="m185.36,137.8l4.3-.7-1.11,2.26-4.15.68-1.36,2.75,3.07,1.51-.96,1.95-9.69-4.77,2.83-5.75c1.33-2.7,3.75-2.38,4.87-1.83,1.22.6,2.61,1.94,2.19,3.9Zm-2.85-2c-.62-.31-1.91-.63-2.58.73l-1.87,3.81,3.35,1.65,1.97-4c.53-1.07-.25-1.88-.87-2.19Z"/>
      <path class="cls-11" d="m185.16,116.01l2.54,6.09,7.85-3.14-.67,2.35-6.44,2.57,1.2,2.88,3.41.97-.59,2.09-10.39-2.95.59-2.09,4.7,1.34-3.02-7.24.82-2.87Z"/>
      <path class="cls-11" d="m186.62,104.47l11.13-2.91-.21,2.16-2.45.64-.48,5,2.28,1.09-.21,2.16-10.38-4.96.3-3.18Zm6.6.38l-4.93,1.29-.02.19,4.6,2.2.35-3.68Z"/>
      <path class="cls-11" d="m193.54,86.85l3.33-2.82.21,2.52-3.21,2.72.26,3.06,3.41-.29.18,2.16-10.77.91-.54-6.39c-.25-3,1.99-3.97,3.24-4.08,1.35-.11,3.24.32,3.88,2.22Zm-3.48-.24c-.69.06-1.96.45-1.83,1.95l.36,4.23,3.73-.31-.37-4.44c-.1-1.19-1.18-1.49-1.87-1.43Z"/>
    </g>
    <path class="cls-13" d="m41.11,172.76C19.15,156.8,4.23,131.52,2.43,102.32-.76,50.4,38.74,5.72,90.66,2.52c36.51-2.25,69.44,16.62,86.88,46.07"/>
    <path class="cls-11" d="m46.16,116.89c0-13.53,10.78-19.64,23.11-19.64v1.2c-12.81,0-21.92,6.47-21.92,18.44s12.1,20.12,25.51,20.12c12.57,0,19.64-6.59,19.64-16.89,0-13.17-12.21-18.44-22.75-24.55-12.69-7.31-20.24-11.5-20.24-23.35s9.58-19.52,24.19-19.52c9.1,0,19.88,1.56,25.63,3.11v18.2c-5.75-10.78-15.57-20.12-25.63-20.12s-17.01,5.03-17.01,13.17c0,9.7,11.98,15.93,20.12,20.84,13.17,8.14,24.19,12.69,24.19,27.78,0,13.17-10.06,22.52-28.14,22.52-14.25,0-26.71-9.34-26.71-21.32Z"/>
    <path class="cls-11" d="m117.05,115.97v11.81c1.14,4.32,6.7,5.79,10.11,6.81h-27.03c3.41-1.02,7.04-3.52,7.84-6.81V62.36c-.8-3.29-4.43-5.79-7.84-6.7h30.1c17.15,0,26.58,4.66,26.58,16.7,0,19.08-39.75,19.65-39.75,43.62Zm0-59.17v51.91c5.68-16.58,30.55-15.79,30.55-35.21,0-11.59-7.72-16.7-17.38-16.7h-13.17Z"/>
    <circle class="cls-10" cx="179.68" cy="52.13" r="5.42"/>
    <circle class="cls-12" cx="40.74" cy="173.01" r="5.42"/>
  </g>
</svg>