<svg width="242" height="152" viewBox="0 0 242 152" fill="none" xmlns="http://www.w3.org/2000/svg">
<path d="M94.427 103.754H98.858C98.858 122.744 83.666 138.569 64.887 138.569V134.349C80.712 134.349 94.427 118.313 94.427 103.754ZM81.767 40.876L62.144 62.398L58.979 59.233L78.602 37.922L81.767 40.876ZM103.711 104.387C103.711 83.076 86.198 65.774 64.887 65.774L92.528 38.133C85.143 30.537 75.859 26.739 64.887 26.739C43.787 26.739 26.274 43.619 26.274 65.141C26.274 86.452 43.576 103.754 64.887 103.754L36.824 131.817C43.576 139.202 52.86 143 64.887 143C86.62 143 103.711 125.487 103.711 104.387ZM112.362 104.387C112.362 129.918 91.473 151.651 64.887 151.651C50.328 151.651 36.824 144.899 24.797 131.606L27.118 129.285C19.944 125.909 13.403 120.845 7.495 114.093L27.54 94.048C26.063 92.36 25.008 90.672 23.953 88.773C9.394 80.122 0.11 64.719 0.11 47.839C0.11 21.464 21.632 0.574997 47.374 0.574997C60.667 0.574997 74.171 7.327 87.464 20.62L85.143 22.941C91.473 26.106 98.014 31.17 104.977 38.133L85.143 58.178C86.409 59.866 87.464 61.554 88.519 63.453C103.5 71.893 112.362 87.296 112.362 104.387ZM223.297 60.288H227.728C227.728 76.746 213.802 88.562 197.344 88.562H178.987V137.936H151.135V133.505H174.556V84.342H197.344C208.949 84.342 223.297 72.315 223.297 60.288ZM205.573 60.288C205.573 64.297 202.408 67.462 198.399 67.462C194.179 67.462 191.225 64.508 191.225 60.288C191.225 56.068 194.179 53.114 198.399 53.114C202.619 53.114 205.573 56.068 205.573 60.288ZM233.003 60.077C233.003 42.775 218.444 26.739 200.931 26.739H142.695V143H183.418V93.837L200.931 93.626C219.077 93.415 233.003 78.012 233.003 60.077ZM241.654 60.077C241.654 82.021 224.141 102.277 200.931 102.277H192.28V151.651H134.044V134.349H116.531V0.574997H183.418C196.922 0.574997 210.426 8.382 219.077 22.73C234.058 31.803 241.654 44.252 241.654 60.077Z" fill="black"/>
</svg>
