<svg width="266" height="90" viewBox="0 0 266 90" fill="none" xmlns="http://www.w3.org/2000/svg">
<path d="M0 45C0 20.1472 20.1472 0 45 0C69.8528 0 90 20.1472 90 45C90 69.8528 69.8528 90 45 90C20.1472 90 0 69.8528 0 45Z" fill="white"/>
<path d="M104.328 36.5625C105.357 36.5625 106.239 36.6048 106.975 36.6895C107.71 36.7741 108.329 36.901 108.83 37.0703C109.338 37.2331 109.742 37.4382 110.041 37.6855C110.34 37.9329 110.572 38.2161 110.734 38.5352C110.897 38.8477 111.001 39.1992 111.047 39.5898C111.099 39.9805 111.125 40.4036 111.125 40.8594C111.125 41.3151 111.083 41.7448 110.998 42.1484C110.92 42.5456 110.777 42.9102 110.568 43.2422C110.36 43.5742 110.077 43.8704 109.719 44.1309C109.361 44.3913 108.905 44.6126 108.352 44.7949C107.798 44.9772 107.131 45.1139 106.35 45.2051C105.575 45.3027 104.667 45.3516 103.625 45.3516H101.125C100.188 45.3516 99.3672 45.3158 98.6641 45.2441C97.9609 45.1725 97.3555 45.0651 96.8477 44.9219C96.3398 44.7721 95.9199 44.5866 95.5879 44.3652C95.2559 44.1374 94.9889 43.8737 94.7871 43.5742C94.5918 43.2682 94.4551 42.9232 94.377 42.5391C94.2988 42.1484 94.2598 41.7188 94.2598 41.25H96.1348C96.1348 41.8359 96.2194 42.2949 96.3887 42.627C96.5579 42.959 96.8379 43.2096 97.2285 43.3789C97.6191 43.5417 98.1302 43.6458 98.7617 43.6914C99.3997 43.7305 100.188 43.75 101.125 43.75H103.625C104.719 43.75 105.627 43.6979 106.35 43.5938C107.072 43.4896 107.648 43.3236 108.078 43.0957C108.508 42.8678 108.811 42.5716 108.986 42.207C109.162 41.8359 109.25 41.3867 109.25 40.8594C109.25 40.332 109.188 39.8926 109.064 39.541C108.947 39.1895 108.71 38.9095 108.352 38.7012C108 38.4928 107.502 38.3464 106.857 38.2617C106.213 38.1706 105.37 38.125 104.328 38.125H101.75C100.604 38.125 99.6211 38.0827 98.8008 37.998C97.987 37.9134 97.3034 37.793 96.75 37.6367C96.1966 37.474 95.7539 37.2754 95.4219 37.041C95.0898 36.8001 94.8359 36.5267 94.6602 36.2207C94.4909 35.9147 94.3802 35.5762 94.3281 35.2051C94.276 34.8275 94.25 34.4206 94.25 33.9844C94.25 33.5286 94.2891 33.1055 94.3672 32.7148C94.4518 32.3242 94.6048 31.9727 94.8262 31.6602C95.0475 31.3411 95.3503 31.0579 95.7344 30.8105C96.1185 30.5632 96.61 30.3581 97.209 30.1953C97.8145 30.026 98.5404 29.8991 99.3867 29.8145C100.233 29.7298 101.229 29.6875 102.375 29.6875H104.25C105.188 29.6875 106.008 29.7233 106.711 29.7949C107.414 29.86 108.02 29.9674 108.527 30.1172C109.035 30.2604 109.455 30.4427 109.787 30.6641C110.126 30.8789 110.393 31.1393 110.588 31.4453C110.79 31.7448 110.93 32.0866 111.008 32.4707C111.086 32.8548 111.125 33.2812 111.125 33.75H109.25C109.25 33.1641 109.165 32.7051 108.996 32.373C108.827 32.041 108.547 31.7936 108.156 31.6309C107.766 31.4616 107.251 31.3574 106.613 31.3184C105.975 31.2728 105.188 31.25 104.25 31.25H102.375C101.125 31.25 100.096 31.2956 99.2891 31.3867C98.4818 31.4714 97.8438 31.6178 97.375 31.8262C96.9062 32.0345 96.5807 32.3145 96.3984 32.666C96.2161 33.0176 96.125 33.457 96.125 33.9844C96.125 34.3099 96.1478 34.5996 96.1934 34.8535C96.2389 35.1074 96.3301 35.332 96.4668 35.5273C96.61 35.7161 96.8086 35.8757 97.0625 36.0059C97.3164 36.1361 97.6517 36.2435 98.0684 36.3281C98.485 36.4128 98.9928 36.4746 99.5918 36.5137C100.197 36.5462 100.917 36.5625 101.75 36.5625H104.328Z" fill="white"/>
<path d="M114.25 33.75H116.125V45H114.25V33.75ZM116.125 31.875H114.25V30H116.125V31.875Z" fill="white"/>
<path d="M125.812 45.2148C124.562 45.2148 123.501 45.1237 122.629 44.9414C121.757 44.7591 121.047 44.4466 120.5 44.0039C119.953 43.5612 119.556 42.9655 119.309 42.2168C119.061 41.4681 118.938 40.5273 118.938 39.3945C118.938 38.2227 119.061 37.2526 119.309 36.4844C119.556 35.7161 119.953 35.1074 120.5 34.6582C121.047 34.209 121.757 33.8932 122.629 33.7109C123.501 33.5286 124.562 33.4375 125.812 33.4375C126.698 33.4375 127.44 33.4831 128.039 33.5742C128.638 33.6654 129.126 33.7793 129.504 33.916C129.888 34.0527 130.178 34.2025 130.373 34.3652C130.575 34.5215 130.721 34.668 130.812 34.8047V30H132.688V45H130.812V43.3301C130.812 43.3301 130.656 43.5156 130.344 43.8867C130.07 44.1536 129.768 44.3685 129.436 44.5312C129.104 44.694 128.638 44.8503 128.039 45C127.44 45.1432 126.698 45.2148 125.812 45.2148ZM125.812 43.75C126.438 43.75 126.994 43.737 127.482 43.7109C127.971 43.6784 128.4 43.6133 128.771 43.5156C129.143 43.418 129.455 43.2747 129.709 43.0859C129.969 42.8906 130.181 42.6335 130.344 42.3145C130.507 41.9954 130.624 41.6016 130.695 41.1328C130.773 40.6576 130.812 40.0879 130.812 39.4238C130.812 38.7337 130.773 38.1478 130.695 37.666C130.624 37.1777 130.507 36.7708 130.344 36.4453C130.181 36.1133 129.969 35.8529 129.709 35.6641C129.455 35.4753 129.143 35.332 128.771 35.2344C128.4 35.1302 127.971 35.0651 127.482 35.0391C126.994 35.013 126.438 35 125.812 35C125.083 35 124.452 35.0228 123.918 35.0684C123.391 35.1139 122.941 35.1953 122.57 35.3125C122.199 35.4297 121.896 35.5924 121.662 35.8008C121.434 36.0091 121.255 36.276 121.125 36.6016C121.001 36.9271 120.917 37.321 120.871 37.7832C120.832 38.2389 120.812 38.776 120.812 39.3945C120.812 40.0065 120.832 40.5404 120.871 40.9961C120.917 41.4453 121.001 41.8327 121.125 42.1582C121.255 42.4772 121.434 42.7409 121.662 42.9492C121.896 43.1576 122.199 43.3203 122.57 43.4375C122.941 43.5547 123.391 43.6361 123.918 43.6816C124.452 43.7272 125.083 43.75 125.812 43.75Z" fill="white"/>
<path d="M141.75 45.2148C140.5 45.2148 139.439 45.1237 138.566 44.9414C137.694 44.7591 136.984 44.4466 136.438 44.0039C135.891 43.5612 135.493 42.9655 135.246 42.2168C134.999 41.4681 134.875 40.5273 134.875 39.3945C134.875 38.2227 134.999 37.2526 135.246 36.4844C135.493 35.7161 135.891 35.1074 136.438 34.6582C136.984 34.209 137.694 33.8932 138.566 33.7109C139.439 33.5286 140.5 33.4375 141.75 33.4375C142.635 33.4375 143.378 33.4831 143.977 33.5742C144.576 33.6654 145.064 33.7793 145.441 33.916C145.826 34.0527 146.115 34.2025 146.311 34.3652C146.512 34.5215 146.659 34.668 146.75 34.8047V30H148.625V45H146.75V43.3301C146.75 43.3301 146.594 43.5156 146.281 43.8867C146.008 44.1536 145.705 44.3685 145.373 44.5312C145.041 44.694 144.576 44.8503 143.977 45C143.378 45.1432 142.635 45.2148 141.75 45.2148ZM141.75 43.75C142.375 43.75 142.932 43.737 143.42 43.7109C143.908 43.6784 144.338 43.6133 144.709 43.5156C145.08 43.418 145.393 43.2747 145.646 43.0859C145.907 42.8906 146.118 42.6335 146.281 42.3145C146.444 41.9954 146.561 41.6016 146.633 41.1328C146.711 40.6576 146.75 40.0879 146.75 39.4238C146.75 38.7337 146.711 38.1478 146.633 37.666C146.561 37.1777 146.444 36.7708 146.281 36.4453C146.118 36.1133 145.907 35.8529 145.646 35.6641C145.393 35.4753 145.08 35.332 144.709 35.2344C144.338 35.1302 143.908 35.0651 143.42 35.0391C142.932 35.013 142.375 35 141.75 35C141.021 35 140.389 35.0228 139.855 35.0684C139.328 35.1139 138.879 35.1953 138.508 35.3125C138.137 35.4297 137.834 35.5924 137.6 35.8008C137.372 36.0091 137.193 36.276 137.062 36.6016C136.939 36.9271 136.854 37.321 136.809 37.7832C136.77 38.2389 136.75 38.776 136.75 39.3945C136.75 40.0065 136.77 40.5404 136.809 40.9961C136.854 41.4453 136.939 41.8327 137.062 42.1582C137.193 42.4772 137.372 42.7409 137.6 42.9492C137.834 43.1576 138.137 43.3203 138.508 43.4375C138.879 43.5547 139.328 43.6361 139.855 43.6816C140.389 43.7272 141.021 43.75 141.75 43.75Z" fill="white"/>
<path d="M162.375 45V38.6523C162.375 37.9753 162.323 37.4056 162.219 36.9434C162.115 36.4746 161.906 36.097 161.594 35.8105C161.281 35.5241 160.839 35.319 160.266 35.1953C159.693 35.0651 158.938 35 158 35C156.984 35 156.151 35.0749 155.5 35.2246C154.855 35.3678 154.348 35.5729 153.977 35.8398C153.605 36.1003 153.348 36.416 153.205 36.7871C153.068 37.1582 153 37.5716 153 38.0273V45H151.125V30H153V35.5273C153.13 35.2214 153.316 34.9577 153.557 34.7363C153.798 34.515 154.074 34.3262 154.387 34.1699C154.706 34.0137 155.048 33.89 155.412 33.7988C155.777 33.7012 156.145 33.6263 156.516 33.5742C156.893 33.5221 157.261 33.4863 157.619 33.4668C157.984 33.4473 158.319 33.4375 158.625 33.4375C159.458 33.4375 160.174 33.4896 160.773 33.5938C161.379 33.6914 161.89 33.8411 162.307 34.043C162.73 34.2383 163.068 34.4824 163.322 34.7754C163.576 35.0684 163.771 35.4102 163.908 35.8008C164.051 36.1849 164.146 36.6178 164.191 37.0996C164.237 37.5749 164.26 38.0924 164.26 38.6523L164.25 45H162.375Z" fill="white"/>
<path d="M167.395 33.75H169.27V45H167.395V33.75ZM169.27 31.875H167.395V30H169.27V31.875Z" fill="white"/>
<path d="M177.395 30H188.664C189.595 30 190.38 30.0423 191.018 30.127C191.662 30.2051 192.193 30.3255 192.609 30.4883C193.026 30.651 193.345 30.8529 193.566 31.0938C193.794 31.3346 193.96 31.6178 194.064 31.9434C194.169 32.2689 194.227 32.6335 194.24 33.0371C194.26 33.4408 194.27 33.8867 194.27 34.375C194.27 34.8828 194.257 35.3516 194.23 35.7812C194.211 36.2109 194.136 36.6016 194.006 36.9531C193.882 37.2982 193.68 37.6042 193.4 37.8711C193.127 38.1315 192.733 38.3496 192.219 38.5254C191.711 38.7012 191.063 38.8346 190.275 38.9258C189.494 39.0169 188.531 39.0625 187.385 39.0625H179.27V45H177.395V30ZM179.27 37.5H187.385C188.218 37.5 188.918 37.487 189.484 37.4609C190.057 37.4284 190.529 37.373 190.9 37.2949C191.271 37.2168 191.558 37.1061 191.76 36.9629C191.962 36.8197 192.108 36.6309 192.199 36.3965C192.297 36.1621 192.352 35.8822 192.365 35.5566C192.385 35.2246 192.395 34.8307 192.395 34.375C192.395 33.9518 192.385 33.5872 192.365 33.2812C192.352 32.9753 192.297 32.7181 192.199 32.5098C192.108 32.3014 191.962 32.1354 191.76 32.0117C191.558 31.888 191.271 31.7936 190.9 31.7285C190.529 31.6569 190.057 31.6113 189.484 31.5918C188.918 31.5723 188.218 31.5625 187.385 31.5625H179.27V37.5Z" fill="white"/>
<path d="M206.721 43.457C206.701 43.5352 206.555 43.7305 206.281 44.043C206.086 44.2773 205.826 44.4857 205.5 44.668C205.174 44.8438 204.738 44.9805 204.191 45.0781C203.651 45.1823 202.938 45.2344 202.053 45.2344C200.874 45.2344 199.868 45.1725 199.035 45.0488C198.202 44.9316 197.521 44.7493 196.994 44.502C196.467 44.248 196.079 43.9258 195.832 43.5352C195.591 43.1445 195.471 42.679 195.471 42.1387C195.471 41.5723 195.536 41.0938 195.666 40.7031C195.803 40.306 195.998 39.974 196.252 39.707C196.512 39.4401 196.825 39.2318 197.189 39.082C197.554 38.9323 197.967 38.8184 198.43 38.7402C198.898 38.6621 199.41 38.6133 199.963 38.5938C200.516 38.5742 201.105 38.5645 201.73 38.5645C202.622 38.5645 203.368 38.6035 203.967 38.6816C204.566 38.7533 205.054 38.8477 205.432 38.9648C205.816 39.0755 206.105 39.196 206.301 39.3262C206.496 39.4564 206.636 39.5768 206.721 39.6875C206.721 38.9583 206.688 38.3366 206.623 37.8223C206.564 37.3079 206.464 36.8783 206.32 36.5332C206.184 36.1882 206.005 35.9147 205.783 35.7129C205.562 35.5046 205.288 35.3483 204.963 35.2441C204.644 35.14 204.27 35.0749 203.84 35.0488C203.41 35.0163 202.919 35 202.365 35C201.506 35 200.793 35.0228 200.227 35.0684C199.66 35.1074 199.211 35.1888 198.879 35.3125C198.547 35.4362 198.312 35.6087 198.176 35.8301C198.039 36.0449 197.971 36.3281 197.971 36.6797H196.096C196.096 36.0872 196.2 35.5859 196.408 35.1758C196.623 34.7656 196.975 34.4336 197.463 34.1797C197.958 33.9193 198.605 33.7305 199.406 33.6133C200.207 33.4961 201.193 33.4375 202.365 33.4375C203.511 33.4375 204.481 33.5319 205.275 33.7207C206.07 33.9095 206.711 34.2415 207.199 34.7168C207.694 35.1921 208.049 35.8333 208.264 36.6406C208.485 37.4414 208.596 38.457 208.596 39.6875V45H206.721V43.457ZM202.365 43.75C203.192 43.75 203.882 43.7109 204.436 43.6328C204.995 43.5547 205.445 43.4375 205.783 43.2812C206.122 43.125 206.363 42.9297 206.506 42.6953C206.649 42.4609 206.721 42.1875 206.721 41.875C206.721 41.5625 206.636 41.2988 206.467 41.084C206.304 40.8626 206.027 40.6836 205.637 40.5469C205.253 40.4102 204.742 40.3125 204.104 40.2539C203.465 40.1888 202.678 40.1562 201.74 40.1562C200.803 40.1562 200.044 40.1725 199.465 40.2051C198.892 40.2376 198.449 40.3125 198.137 40.4297C197.824 40.5469 197.613 40.7194 197.502 40.9473C197.398 41.1751 197.346 41.4844 197.346 41.875C197.346 42.2656 197.401 42.5846 197.512 42.832C197.629 43.0729 197.863 43.2617 198.215 43.3984C198.566 43.5352 199.071 43.6296 199.729 43.6816C200.393 43.7272 201.271 43.75 202.365 43.75Z" fill="white"/>
<path d="M220.793 37.4121C220.793 36.9434 220.757 36.556 220.686 36.25C220.62 35.9375 220.461 35.6901 220.207 35.5078C219.953 35.319 219.576 35.1888 219.074 35.1172C218.579 35.0391 217.902 35 217.043 35C216.203 35 215.52 35.0749 214.992 35.2246C214.465 35.3678 214.051 35.5729 213.752 35.8398C213.452 36.1068 213.247 36.4258 213.137 36.7969C213.033 37.168 212.98 37.5814 212.98 38.0371V45H211.105V33.75H212.98V35.5371C213.046 35.3353 213.166 35.1139 213.342 34.873C213.518 34.6257 213.785 34.3978 214.143 34.1895C214.501 33.9746 214.963 33.7956 215.529 33.6523C216.102 33.5091 216.815 33.4375 217.668 33.4375C218.645 33.4375 219.439 33.5254 220.051 33.7012C220.663 33.8704 221.138 34.1243 221.477 34.4629C221.822 34.7949 222.053 35.2083 222.17 35.7031C222.294 36.1979 222.355 36.7676 222.355 37.4121H220.793Z" fill="white"/>
<path d="M223.605 30H225.48V38.2031H226.105L232.98 33.75H235.793L227.824 38.9844L236.105 45H233.293L226.105 39.6094H225.48V45H223.605V30Z" fill="white"/>
<path d="M247.619 43.457C247.6 43.5352 247.453 43.7305 247.18 44.043C246.984 44.2773 246.724 44.4857 246.398 44.668C246.073 44.8438 245.637 44.9805 245.09 45.0781C244.549 45.1823 243.837 45.2344 242.951 45.2344C241.773 45.2344 240.767 45.1725 239.934 45.0488C239.1 44.9316 238.42 44.7493 237.893 44.502C237.365 44.248 236.978 43.9258 236.73 43.5352C236.49 43.1445 236.369 42.679 236.369 42.1387C236.369 41.5723 236.434 41.0938 236.564 40.7031C236.701 40.306 236.896 39.974 237.15 39.707C237.411 39.4401 237.723 39.2318 238.088 39.082C238.452 38.9323 238.866 38.8184 239.328 38.7402C239.797 38.6621 240.308 38.6133 240.861 38.5938C241.415 38.5742 242.004 38.5645 242.629 38.5645C243.521 38.5645 244.266 38.6035 244.865 38.6816C245.464 38.7533 245.952 38.8477 246.33 38.9648C246.714 39.0755 247.004 39.196 247.199 39.3262C247.395 39.4564 247.535 39.5768 247.619 39.6875C247.619 38.9583 247.587 38.3366 247.521 37.8223C247.463 37.3079 247.362 36.8783 247.219 36.5332C247.082 36.1882 246.903 35.9147 246.682 35.7129C246.46 35.5046 246.187 35.3483 245.861 35.2441C245.542 35.14 245.168 35.0749 244.738 35.0488C244.309 35.0163 243.817 35 243.264 35C242.404 35 241.691 35.0228 241.125 35.0684C240.559 35.1074 240.109 35.1888 239.777 35.3125C239.445 35.4362 239.211 35.6087 239.074 35.8301C238.938 36.0449 238.869 36.3281 238.869 36.6797H236.994C236.994 36.0872 237.098 35.5859 237.307 35.1758C237.521 34.7656 237.873 34.4336 238.361 34.1797C238.856 33.9193 239.504 33.7305 240.305 33.6133C241.105 33.4961 242.092 33.4375 243.264 33.4375C244.41 33.4375 245.38 33.5319 246.174 33.7207C246.968 33.9095 247.609 34.2415 248.098 34.7168C248.592 35.1921 248.947 35.8333 249.162 36.6406C249.383 37.4414 249.494 38.457 249.494 39.6875V45H247.619V43.457ZM243.264 43.75C244.09 43.75 244.781 43.7109 245.334 43.6328C245.894 43.5547 246.343 43.4375 246.682 43.2812C247.02 43.125 247.261 42.9297 247.404 42.6953C247.548 42.4609 247.619 42.1875 247.619 41.875C247.619 41.5625 247.535 41.2988 247.365 41.084C247.202 40.8626 246.926 40.6836 246.535 40.5469C246.151 40.4102 245.64 40.3125 245.002 40.2539C244.364 40.1888 243.576 40.1562 242.639 40.1562C241.701 40.1562 240.943 40.1725 240.363 40.2051C239.79 40.2376 239.348 40.3125 239.035 40.4297C238.723 40.5469 238.511 40.7194 238.4 40.9473C238.296 41.1751 238.244 41.4844 238.244 41.875C238.244 42.2656 238.299 42.5846 238.41 42.832C238.527 43.0729 238.762 43.2617 239.113 43.3984C239.465 43.5352 239.969 43.6296 240.627 43.6816C241.291 43.7272 242.17 43.75 243.264 43.75Z" fill="white"/>
<path d="M261.691 37.4121C261.691 36.9434 261.656 36.556 261.584 36.25C261.519 35.9375 261.359 35.6901 261.105 35.5078C260.852 35.319 260.474 35.1888 259.973 35.1172C259.478 35.0391 258.801 35 257.941 35C257.102 35 256.418 35.0749 255.891 35.2246C255.363 35.3678 254.95 35.5729 254.65 35.8398C254.351 36.1068 254.146 36.4258 254.035 36.7969C253.931 37.168 253.879 37.5814 253.879 38.0371V45H252.004V33.75H253.879V35.5371C253.944 35.3353 254.064 35.1139 254.24 34.873C254.416 34.6257 254.683 34.3978 255.041 34.1895C255.399 33.9746 255.861 33.7956 256.428 33.6523C257.001 33.5091 257.714 33.4375 258.566 33.4375C259.543 33.4375 260.337 33.5254 260.949 33.7012C261.561 33.8704 262.036 34.1243 262.375 34.4629C262.72 34.7949 262.951 35.2083 263.068 35.7031C263.192 36.1979 263.254 36.7676 263.254 37.4121H261.691Z" fill="white"/>
<path d="M32.6914 44.0781C34.3887 44.0781 35.8442 44.1479 37.0581 44.2876C38.272 44.4272 39.2925 44.6367 40.1196 44.916C40.9575 45.1846 41.6235 45.5229 42.1177 45.9312C42.6118 46.3394 42.9932 46.8066 43.2617 47.333C43.5303 47.8486 43.7021 48.4287 43.7773 49.0732C43.8633 49.7178 43.9062 50.416 43.9062 51.168C43.9062 51.9199 43.8364 52.6289 43.6968 53.2949C43.5679 53.9502 43.3315 54.5518 42.9878 55.0996C42.644 55.6475 42.1768 56.1362 41.5859 56.5659C40.9951 56.9956 40.2432 57.3608 39.3301 57.6616C38.417 57.9624 37.3159 58.188 36.0269 58.3384C34.7485 58.4995 33.25 58.5801 31.5312 58.5801H27.4062C25.8594 58.5801 24.5059 58.521 23.3457 58.4028C22.1855 58.2847 21.1865 58.1074 20.3486 57.8711C19.5107 57.624 18.8179 57.3179 18.27 56.9526C17.7222 56.5767 17.2817 56.1416 16.9487 55.6475C16.6265 55.1426 16.4009 54.5732 16.272 53.9395C16.1431 53.2949 16.0786 52.5859 16.0786 51.8125H19.1724C19.1724 52.7793 19.312 53.5366 19.5913 54.0845C19.8706 54.6323 20.3325 55.0459 20.9771 55.3252C21.6216 55.5938 22.4648 55.7656 23.5068 55.8408C24.5596 55.9053 25.8594 55.9375 27.4062 55.9375H31.5312C33.3359 55.9375 34.8345 55.8516 36.0269 55.6797C37.2192 55.5078 38.1699 55.2339 38.8789 54.8579C39.5879 54.4819 40.0874 53.9932 40.3774 53.3916C40.6675 52.7793 40.8125 52.0381 40.8125 51.168C40.8125 50.2979 40.7104 49.5728 40.5063 48.9927C40.313 48.4126 39.9209 47.9507 39.3301 47.6069C38.75 47.2632 37.9282 47.0215 36.8647 46.8818C35.8013 46.7314 34.4102 46.6562 32.6914 46.6562H28.4375C26.5469 46.6562 24.9248 46.5864 23.5713 46.4468C22.2285 46.3071 21.1006 46.1084 20.1875 45.8506C19.2744 45.582 18.5439 45.2544 17.9961 44.8677C17.4482 44.4702 17.0293 44.019 16.7393 43.5142C16.46 43.0093 16.2773 42.4507 16.1914 41.8384C16.1055 41.2153 16.0625 40.5439 16.0625 39.8242C16.0625 39.0723 16.127 38.374 16.2559 37.7295C16.3955 37.085 16.6479 36.5049 17.0132 35.9893C17.3784 35.4629 17.8779 34.9956 18.5117 34.5874C19.1455 34.1792 19.9565 33.8408 20.9448 33.5723C21.9438 33.293 23.1416 33.0835 24.5381 32.9438C25.9346 32.8042 27.5781 32.7344 29.4688 32.7344H32.5625C34.1094 32.7344 35.4629 32.7935 36.623 32.9116C37.7832 33.019 38.7822 33.1963 39.6201 33.4434C40.458 33.6797 41.1509 33.9805 41.6987 34.3457C42.2573 34.7002 42.6978 35.1299 43.02 35.6348C43.353 36.1289 43.584 36.6929 43.7129 37.3267C43.8418 37.9604 43.9062 38.6641 43.9062 39.4375H40.8125C40.8125 38.4707 40.6729 37.7134 40.3936 37.1655C40.1143 36.6177 39.6523 36.2095 39.0078 35.9409C38.3633 35.6616 37.5146 35.4897 36.4619 35.4253C35.4092 35.3501 34.1094 35.3125 32.5625 35.3125H29.4688C27.4062 35.3125 25.709 35.3877 24.377 35.5381C23.0449 35.6777 21.9922 35.9194 21.2188 36.2632C20.4453 36.6069 19.9082 37.0688 19.6074 37.6489C19.3066 38.229 19.1562 38.9541 19.1562 39.8242C19.1562 40.3613 19.1938 40.8394 19.269 41.2583C19.3442 41.6772 19.4946 42.0479 19.7202 42.3701C19.9565 42.6816 20.2842 42.9448 20.7031 43.1597C21.1221 43.3745 21.6753 43.5518 22.3628 43.6914C23.0503 43.8311 23.8882 43.9331 24.8765 43.9976C25.8755 44.0513 27.0625 44.0781 28.4375 44.0781H32.6914Z" fill="black"/>
<path d="M49.0625 33.25H67.6572C69.1934 33.25 70.4878 33.3198 71.5405 33.4595C72.604 33.5884 73.4795 33.7871 74.167 34.0557C74.8545 34.3242 75.3809 34.6572 75.7461 35.0547C76.1221 35.4521 76.396 35.9194 76.5679 36.4565C76.7397 36.9937 76.8364 37.5952 76.8579 38.2612C76.8901 38.9272 76.9062 39.6631 76.9062 40.4688C76.9062 41.3066 76.8848 42.0801 76.8418 42.7891C76.8096 43.498 76.686 44.1426 76.4712 44.7227C76.2671 45.292 75.9341 45.7969 75.4722 46.2373C75.021 46.667 74.3711 47.0269 73.5225 47.3169C72.6846 47.6069 71.6157 47.8271 70.3159 47.9775C69.0269 48.1279 67.437 48.2031 65.5464 48.2031H52.1562V58H49.0625V33.25ZM52.1562 45.625H65.5464C66.9214 45.625 68.0762 45.6035 69.0107 45.5605C69.9561 45.5068 70.7349 45.4155 71.3472 45.2866C71.9595 45.1577 72.4321 44.9751 72.7651 44.7388C73.0981 44.5024 73.3398 44.1909 73.4902 43.8042C73.6514 43.4175 73.7427 42.9556 73.7642 42.4185C73.7964 41.8706 73.8125 41.2207 73.8125 40.4688C73.8125 39.7705 73.7964 39.1689 73.7642 38.6641C73.7427 38.1592 73.6514 37.7349 73.4902 37.3911C73.3398 37.0474 73.0981 36.7734 72.7651 36.5693C72.4321 36.3652 71.9595 36.2095 71.3472 36.1021C70.7349 35.9839 69.9561 35.9087 69.0107 35.8765C68.0762 35.8442 66.9214 35.8281 65.5464 35.8281H52.1562V45.625Z" fill="black"/>
<path d="M102.692 52.5V56.25C102.692 56.6927 102.686 57.0964 102.673 57.4609C102.663 57.8255 102.626 58.1527 102.561 58.4424C102.499 58.7321 102.399 58.9844 102.263 59.1992C102.126 59.4141 101.931 59.5931 101.677 59.7363C101.423 59.8763 101.099 59.9805 100.705 60.0488C100.314 60.1204 99.8327 60.1562 99.2598 60.1562H97.0625C96.4896 60.1562 96.0062 60.1204 95.6123 60.0488C95.2217 59.9805 94.8994 59.8763 94.6455 59.7363C94.3916 59.5931 94.1947 59.4141 94.0547 59.1992C93.918 58.9844 93.8171 58.7321 93.752 58.4424C93.6901 58.1527 93.6543 57.8255 93.6445 57.4609C93.6348 57.0964 93.6299 56.6927 93.6299 56.25V52.5H94.5674V56.25C94.5674 56.7188 94.5706 57.1224 94.5771 57.4609C94.5869 57.7962 94.6146 58.0794 94.6602 58.3105C94.7057 58.5417 94.7773 58.7272 94.875 58.8672C94.9759 59.0072 95.1191 59.1146 95.3047 59.1895C95.4902 59.2643 95.7246 59.3148 96.0078 59.3408C96.2943 59.3636 96.6458 59.375 97.0625 59.375H99.2598C99.6732 59.375 100.023 59.3636 100.31 59.3408C100.596 59.3148 100.83 59.2643 101.013 59.1895C101.198 59.1146 101.341 59.0072 101.442 58.8672C101.543 58.7272 101.617 58.5417 101.662 58.3105C101.711 58.0794 101.739 57.7962 101.745 57.4609C101.752 57.1224 101.755 56.7188 101.755 56.25L101.75 52.5H102.692Z" fill="white"/>
<path d="M104.26 52.5H105.197V60H104.26V52.5Z" fill="white"/>
<path d="M109.885 52.5H110.822L107.385 60H106.447L109.885 52.5Z" fill="white"/>
<path d="M120.827 52.5V56.25C120.827 56.6927 120.821 57.0964 120.808 57.4609C120.798 57.8255 120.76 58.1527 120.695 58.4424C120.633 58.7321 120.534 58.9844 120.397 59.1992C120.261 59.4141 120.065 59.5931 119.812 59.7363C119.558 59.8763 119.234 59.9805 118.84 60.0488C118.449 60.1204 117.967 60.1562 117.395 60.1562H115.197C114.624 60.1562 114.141 60.1204 113.747 60.0488C113.356 59.9805 113.034 59.8763 112.78 59.7363C112.526 59.5931 112.329 59.4141 112.189 59.1992C112.053 58.9844 111.952 58.7321 111.887 58.4424C111.825 58.1527 111.789 57.8255 111.779 57.4609C111.77 57.0964 111.765 56.6927 111.765 56.25V52.5H112.702V56.25C112.702 56.7188 112.705 57.1224 112.712 57.4609C112.722 57.7962 112.749 58.0794 112.795 58.3105C112.84 58.5417 112.912 58.7272 113.01 58.8672C113.111 59.0072 113.254 59.1146 113.439 59.1895C113.625 59.2643 113.859 59.3148 114.143 59.3408C114.429 59.3636 114.781 59.375 115.197 59.375H117.395C117.808 59.375 118.158 59.3636 118.444 59.3408C118.731 59.3148 118.965 59.2643 119.147 59.1895C119.333 59.1146 119.476 59.0072 119.577 58.8672C119.678 58.7272 119.751 58.5417 119.797 58.3105C119.846 58.0794 119.873 57.7962 119.88 57.4609C119.886 57.1224 119.89 56.7188 119.89 56.25L119.885 52.5H120.827Z" fill="white"/>
<path d="M127.36 56.0449L131.77 60H130.441L126.706 56.6504L123.098 60H121.77L126.032 56.0449L122.082 52.5H123.41L126.682 55.4395L129.851 52.5H131.179L127.36 56.0449Z" fill="white"/>
<path d="M140.827 59.2188C141.241 59.2188 141.59 59.2074 141.877 59.1846C142.163 59.1618 142.399 59.1162 142.585 59.0479C142.771 58.9762 142.914 58.8737 143.015 58.7402C143.116 58.6068 143.189 58.431 143.234 58.2129C143.283 57.9915 143.311 57.7214 143.317 57.4023C143.327 57.0801 143.332 56.696 143.332 56.25C143.332 55.804 143.327 55.4215 143.317 55.1025C143.311 54.7803 143.283 54.5101 143.234 54.292C143.189 54.0706 143.116 53.8932 143.015 53.7598C142.914 53.6263 142.771 53.5254 142.585 53.457C142.399 53.3854 142.163 53.3382 141.877 53.3154C141.594 53.2926 141.244 53.2812 140.827 53.2812H136.145V59.2188H140.827ZM135.207 60V52.5H140.827C141.4 52.5 141.882 52.5342 142.272 52.6025C142.666 52.6676 142.99 52.7686 143.244 52.9053C143.501 53.042 143.698 53.2129 143.835 53.418C143.975 53.623 144.076 53.8656 144.138 54.1455C144.203 54.4222 144.24 54.7363 144.25 55.0879C144.263 55.4362 144.27 55.8236 144.27 56.25C144.27 56.6764 144.263 57.0654 144.25 57.417C144.24 57.7653 144.203 58.0794 144.138 58.3594C144.076 58.6361 143.975 58.877 143.835 59.082C143.698 59.2871 143.501 59.458 143.244 59.5947C142.99 59.7314 142.666 59.834 142.272 59.9023C141.882 59.9674 141.4 60 140.827 60H135.207Z" fill="white"/>
<path d="M148.801 60.1074C148.176 60.1074 147.645 60.0651 147.209 59.9805C146.773 59.8926 146.418 59.7428 146.145 59.5312C145.871 59.3197 145.673 59.0365 145.549 58.6816C145.425 58.3268 145.363 57.8809 145.363 57.3438C145.363 56.7285 145.425 56.2207 145.549 55.8203C145.673 55.4167 145.871 55.096 146.145 54.8584C146.418 54.6208 146.773 54.4548 147.209 54.3604C147.645 54.266 148.176 54.2188 148.801 54.2188C149.247 54.2188 149.632 54.2513 149.958 54.3164C150.287 54.3815 150.567 54.4759 150.798 54.5996C151.032 54.7233 151.221 54.873 151.364 55.0488C151.511 55.2246 151.625 55.4102 151.706 55.6055C151.791 55.7975 151.848 56.0238 151.877 56.2842C151.91 56.5446 151.926 56.8197 151.926 57.1094L151.848 57.4219H146.301C146.301 57.8516 146.343 58.2048 146.428 58.4814C146.512 58.7549 146.652 58.9551 146.848 59.082C147.043 59.209 147.3 59.2904 147.619 59.3262C147.938 59.3587 148.332 59.375 148.801 59.375C149.23 59.375 149.585 59.3636 149.865 59.3408C150.148 59.3148 150.373 59.2676 150.539 59.1992C150.705 59.1309 150.821 59.0365 150.886 58.916C150.954 58.7923 150.988 58.6328 150.988 58.4375H151.926C151.926 58.7402 151.872 58.999 151.765 59.2139C151.66 59.4255 151.486 59.598 151.242 59.7314C150.998 59.8617 150.676 59.9561 150.275 60.0146C149.878 60.0765 149.387 60.1074 148.801 60.1074ZM148.801 55C148.488 55 148.208 55.0065 147.961 55.0195C147.717 55.0326 147.502 55.0618 147.316 55.1074C147.134 55.1497 146.978 55.2132 146.848 55.2979C146.717 55.3792 146.612 55.4769 146.53 55.5908C146.452 55.7015 146.394 55.8594 146.354 56.0645C146.319 56.2663 146.301 56.5104 146.301 56.7969H150.988C150.988 56.416 150.948 56.1182 150.866 55.9033C150.785 55.6852 150.656 55.5062 150.48 55.3662C150.305 55.2262 150.078 55.1302 149.802 55.0781C149.525 55.026 149.191 55 148.801 55Z" fill="white"/>
<path d="M156.457 57.4365C156.014 57.4365 155.625 57.43 155.29 57.417C154.955 57.404 154.665 57.3779 154.421 57.3389C154.18 57.2965 153.978 57.238 153.815 57.1631C153.656 57.0882 153.529 56.9889 153.435 56.8652C153.34 56.7383 153.273 56.5837 153.234 56.4014C153.195 56.2158 153.176 56.0156 153.176 55.8008C153.176 55.5078 153.238 55.262 153.361 55.0635C153.485 54.8617 153.684 54.6989 153.957 54.5752C154.23 54.4482 154.585 54.3571 155.021 54.3018C155.458 54.2464 155.988 54.2188 156.613 54.2188C157.232 54.2188 157.741 54.2513 158.142 54.3164C158.545 54.3815 158.864 54.4824 159.099 54.6191C159.336 54.7526 159.502 54.9219 159.597 55.127C159.691 55.332 159.738 55.5762 159.738 55.8594H158.801C158.801 55.6836 158.767 55.5404 158.698 55.4297C158.633 55.319 158.518 55.2327 158.352 55.1709C158.186 55.1058 157.961 55.0618 157.678 55.0391C157.398 55.013 157.043 55 156.613 55C156.145 55 155.751 55.0065 155.432 55.0195C155.113 55.0326 154.855 55.0651 154.66 55.1172C154.465 55.1693 154.325 55.249 154.24 55.3564C154.156 55.4639 154.113 55.612 154.113 55.8008C154.113 55.9115 154.12 56.0205 154.133 56.1279C154.149 56.2321 154.183 56.3184 154.235 56.3867C154.287 56.4551 154.364 56.5072 154.465 56.543C154.566 56.5788 154.702 56.6064 154.875 56.626C155.051 56.6423 155.267 56.652 155.524 56.6553C155.782 56.6553 156.092 56.6553 156.457 56.6553C156.9 56.6553 157.287 56.665 157.619 56.6846C157.954 56.7041 158.244 56.7383 158.488 56.7871C158.732 56.8359 158.934 56.9108 159.094 57.0117C159.253 57.1126 159.38 57.2233 159.475 57.3438C159.572 57.4609 159.641 57.6009 159.68 57.7637C159.719 57.9232 159.738 58.1087 159.738 58.3203C159.738 58.5319 159.719 58.7223 159.68 58.8916C159.641 59.0576 159.572 59.2057 159.475 59.3359C159.377 59.4629 159.243 59.5736 159.074 59.668C158.908 59.7591 158.698 59.834 158.444 59.8926C158.19 59.9479 157.886 59.9886 157.531 60.0146C157.18 60.0439 156.77 60.0586 156.301 60.0586C155.715 60.0586 155.222 60.0293 154.821 59.9707C154.424 59.9121 154.104 59.8193 153.859 59.6924C153.615 59.5622 153.439 59.3945 153.332 59.1895C153.228 58.9844 153.176 58.7337 153.176 58.4375H154.113C154.113 58.6328 154.146 58.7923 154.211 58.916C154.279 59.0365 154.396 59.1309 154.562 59.1992C154.729 59.2676 154.951 59.3148 155.231 59.3408C155.515 59.3636 155.871 59.375 156.301 59.375C156.691 59.375 157.023 59.3669 157.297 59.3506C157.574 59.3311 157.805 59.3018 157.99 59.2627C158.176 59.2236 158.322 59.1764 158.43 59.1211C158.537 59.0658 158.618 58.999 158.674 58.9209C158.729 58.8428 158.763 58.7565 158.776 58.6621C158.793 58.5645 158.801 58.457 158.801 58.3398C158.801 58.2324 158.793 58.138 158.776 58.0566C158.763 57.972 158.731 57.889 158.679 57.8076C158.627 57.723 158.55 57.6595 158.449 57.6172C158.348 57.5749 158.21 57.5407 158.034 57.5146C157.862 57.4854 157.647 57.4658 157.39 57.4561C157.132 57.443 156.822 57.4365 156.457 57.4365Z" fill="white"/>
<path d="M161.301 54.375H162.238V60H161.301V54.375ZM162.238 53.4375H161.301V52.5H162.238V53.4375Z" fill="white"/>
<path d="M167.082 55C166.717 55 166.402 55.0114 166.135 55.0342C165.871 55.057 165.646 55.0977 165.461 55.1562C165.275 55.2148 165.124 55.2962 165.007 55.4004C164.893 55.5046 164.803 55.638 164.738 55.8008C164.676 55.9635 164.634 56.1605 164.611 56.3916C164.592 56.6195 164.582 56.888 164.582 57.1973C164.582 57.5033 164.592 57.7702 164.611 57.998C164.634 58.2227 164.676 58.4163 164.738 58.5791C164.803 58.7386 164.893 58.8704 165.007 58.9746C165.124 59.0788 165.275 59.1602 165.461 59.2188C165.646 59.2773 165.871 59.318 166.135 59.3408C166.402 59.3636 166.717 59.375 167.082 59.375C167.395 59.375 167.673 59.3685 167.917 59.3555C168.161 59.3392 168.376 59.3066 168.562 59.2578C168.747 59.2057 168.903 59.1325 169.03 59.0381C169.16 58.9404 169.266 58.8118 169.348 58.6523C169.429 58.4896 169.488 58.2894 169.523 58.0518C169.562 57.8109 169.582 57.5212 169.582 57.1826C169.582 56.8441 169.562 56.5544 169.523 56.3135C169.488 56.0726 169.429 55.8724 169.348 55.7129C169.266 55.5501 169.16 55.4215 169.03 55.3271C168.903 55.2327 168.747 55.1611 168.562 55.1123C168.376 55.0635 168.161 55.0326 167.917 55.0195C167.673 55.0065 167.395 55 167.082 55ZM170.52 59.2188C170.52 59.7656 170.458 60.2197 170.334 60.5811C170.21 60.9424 170.012 61.2337 169.738 61.4551C169.465 61.6797 169.11 61.8359 168.674 61.9238C168.238 62.0117 167.707 62.0557 167.082 62.0557C166.496 62.0557 166.003 62.0296 165.603 61.9775C165.205 61.9255 164.885 61.8424 164.641 61.7285C164.396 61.6178 164.221 61.473 164.113 61.2939C164.009 61.1182 163.957 60.9033 163.957 60.6494H164.895C164.895 60.7764 164.927 60.8805 164.992 60.9619C165.061 61.0433 165.178 61.1068 165.344 61.1523C165.51 61.1979 165.733 61.2288 166.013 61.2451C166.296 61.2646 166.652 61.2744 167.082 61.2744C167.551 61.2744 167.945 61.2565 168.264 61.2207C168.583 61.1882 168.84 61.1084 169.035 60.9814C169.23 60.8545 169.37 60.6624 169.455 60.4053C169.54 60.1481 169.582 59.8047 169.582 59.375C169.536 59.4531 169.463 59.5378 169.362 59.6289C169.265 59.7201 169.12 59.8047 168.928 59.8828C168.739 59.9609 168.495 60.026 168.195 60.0781C167.896 60.1302 167.525 60.1562 167.082 60.1562C166.457 60.1562 165.926 60.109 165.49 60.0146C165.054 59.9235 164.699 59.7656 164.426 59.541C164.152 59.3164 163.954 59.0137 163.83 58.6328C163.706 58.252 163.645 57.7734 163.645 57.1973C163.645 56.6113 163.706 56.1263 163.83 55.7422C163.954 55.3581 164.152 55.0537 164.426 54.8291C164.699 54.6045 165.054 54.4466 165.49 54.3555C165.926 54.2643 166.457 54.2188 167.082 54.2188C167.525 54.2188 167.896 54.2415 168.195 54.2871C168.495 54.3327 168.739 54.3896 168.928 54.458C169.12 54.5264 169.265 54.6012 169.362 54.6826C169.463 54.7607 169.536 54.8324 169.582 54.8975V54.375H170.52V59.2188Z" fill="white"/>
<path d="M177.395 60V56.875C177.395 56.5267 177.368 56.2337 177.316 55.9961C177.264 55.7552 177.16 55.5615 177.004 55.415C176.848 55.2686 176.626 55.1628 176.34 55.0977C176.053 55.0326 175.676 55 175.207 55C174.699 55 174.283 55.0374 173.957 55.1123C173.635 55.1872 173.381 55.293 173.195 55.4297C173.01 55.5664 172.881 55.7308 172.81 55.9229C172.741 56.1149 172.707 56.3281 172.707 56.5625V60H171.77V54.375H172.707V55.3125C172.775 55.153 172.873 55.0163 173 54.9023C173.127 54.7852 173.27 54.6859 173.43 54.6045C173.589 54.5231 173.762 54.458 173.947 54.4092C174.133 54.3571 174.318 54.318 174.504 54.292C174.689 54.2627 174.868 54.2432 175.041 54.2334C175.217 54.2236 175.376 54.2188 175.52 54.2188C175.936 54.2188 176.294 54.2448 176.594 54.2969C176.896 54.349 177.152 54.4255 177.36 54.5264C177.572 54.6273 177.741 54.7526 177.868 54.9023C177.995 55.0521 178.093 55.2262 178.161 55.4248C178.233 55.6201 178.28 55.8398 178.303 56.084C178.326 56.3249 178.337 56.5885 178.337 56.875L178.332 60H177.395Z" fill="white"/>
<path d="M182.873 60.1074C182.248 60.1074 181.717 60.0651 181.281 59.9805C180.845 59.8926 180.49 59.7428 180.217 59.5312C179.943 59.3197 179.745 59.0365 179.621 58.6816C179.497 58.3268 179.436 57.8809 179.436 57.3438C179.436 56.7285 179.497 56.2207 179.621 55.8203C179.745 55.4167 179.943 55.096 180.217 54.8584C180.49 54.6208 180.845 54.4548 181.281 54.3604C181.717 54.266 182.248 54.2188 182.873 54.2188C183.319 54.2188 183.705 54.2513 184.03 54.3164C184.359 54.3815 184.639 54.4759 184.87 54.5996C185.104 54.7233 185.293 54.873 185.437 55.0488C185.583 55.2246 185.697 55.4102 185.778 55.6055C185.863 55.7975 185.92 56.0238 185.949 56.2842C185.982 56.5446 185.998 56.8197 185.998 57.1094L185.92 57.4219H180.373C180.373 57.8516 180.415 58.2048 180.5 58.4814C180.585 58.7549 180.725 58.9551 180.92 59.082C181.115 59.209 181.372 59.2904 181.691 59.3262C182.01 59.3587 182.404 59.375 182.873 59.375C183.303 59.375 183.658 59.3636 183.938 59.3408C184.221 59.3148 184.445 59.2676 184.611 59.1992C184.777 59.1309 184.893 59.0365 184.958 58.916C185.026 58.7923 185.061 58.6328 185.061 58.4375H185.998C185.998 58.7402 185.944 58.999 185.837 59.2139C185.733 59.4255 185.559 59.598 185.314 59.7314C185.07 59.8617 184.748 59.9561 184.348 60.0146C183.951 60.0765 183.459 60.1074 182.873 60.1074ZM182.873 55C182.561 55 182.281 55.0065 182.033 55.0195C181.789 55.0326 181.574 55.0618 181.389 55.1074C181.206 55.1497 181.05 55.2132 180.92 55.2979C180.79 55.3792 180.684 55.4769 180.603 55.5908C180.524 55.7015 180.466 55.8594 180.427 56.0645C180.391 56.2663 180.373 56.5104 180.373 56.7969H185.061C185.061 56.416 185.02 56.1182 184.938 55.9033C184.857 55.6852 184.729 55.5062 184.553 55.3662C184.377 55.2262 184.151 55.1302 183.874 55.0781C183.597 55.026 183.264 55 182.873 55Z" fill="white"/>
<path d="M192.092 56.2061C192.092 55.9717 192.074 55.778 192.038 55.625C192.006 55.4688 191.926 55.3451 191.799 55.2539C191.672 55.1595 191.483 55.0944 191.232 55.0586C190.985 55.0195 190.646 55 190.217 55C189.797 55 189.455 55.0374 189.191 55.1123C188.928 55.1839 188.721 55.2865 188.571 55.4199C188.422 55.5534 188.319 55.7129 188.264 55.8984C188.212 56.084 188.186 56.2907 188.186 56.5186V60H187.248V54.375H188.186V55.2686C188.218 55.1676 188.278 55.057 188.366 54.9365C188.454 54.8128 188.588 54.6989 188.767 54.5947C188.946 54.4873 189.177 54.3978 189.46 54.3262C189.746 54.2546 190.103 54.2188 190.529 54.2188C191.018 54.2188 191.415 54.2627 191.721 54.3506C192.027 54.4352 192.264 54.5622 192.434 54.7314C192.606 54.8975 192.722 55.1042 192.78 55.3516C192.842 55.599 192.873 55.8838 192.873 56.2061H192.092Z" fill="white"/>
</svg>
