<?xml version="1.0" encoding="UTF-8"?>
<svg id="Layer_1" data-name="Layer 1" xmlns="http://www.w3.org/2000/svg" xmlns:xlink="http://www.w3.org/1999/xlink" viewBox="0 0 200 200">
  <defs>
    <style>
      .cls-1 {
        fill: url(#linear-gradient);
      }

      .cls-1, .cls-2, .cls-3 {
        stroke-width: 0px;
      }

      .cls-4 {
        fill: none;
        stroke: #fff;
        stroke-miterlimit: 10;
      }

      .cls-2 {
        fill: #fff;
      }

      .cls-3 {
        fill: url(#linear-gradient-2);
      }
    </style>
    <linearGradient id="linear-gradient" x1="146.79" y1="66.86" x2="157.48" y2="78.3" gradientUnits="userSpaceOnUse">
      <stop offset=".28" stop-color="#2951a3"/>
      <stop offset=".86" stop-color="#578cc9"/>
    </linearGradient>
    <linearGradient id="linear-gradient-2" x1="60.31" y1="142.09" x2="71" y2="153.53" xlink:href="#linear-gradient"/>
  </defs>
  <g>
    <path class="cls-2" d="m84.04,151.96c-.05-.42-.22-.82-.52-1.19-.3-.38-.74-.66-1.33-.84-.4-.12-.78-.17-1.16-.13-.37.03-.69.14-.96.32-.27.18-.45.42-.54.71-.07.21-.08.44-.05.68.06.33.22.63.5.92.28.28.68.64,1.21,1.06.42.32.76.6,1.01.84.25.24.47.5.65.79.18.29.28.6.29.92,0,.17-.02.35-.08.55-.11.35-.32.66-.64.92-.31.26-.72.43-1.21.51-.49.08-1.04.02-1.66-.17-.96-.3-1.64-.74-2.04-1.31s-.55-1.16-.47-1.79l.21.05c0,.56.18,1.1.53,1.6.35.5.91.87,1.66,1.11.38.12.74.16,1.06.11.32-.05.59-.16.81-.34.22-.18.36-.39.44-.64.08-.27.08-.54-.02-.81-.12-.33-.32-.64-.59-.92-.27-.28-.65-.61-1.14-1-.47-.38-.83-.7-1.09-.96-.26-.26-.45-.55-.58-.88s-.14-.7,0-1.09c.13-.42.38-.76.75-1.03.37-.26.82-.42,1.35-.47.53-.05,1.1.02,1.69.2.16.05.28.09.35.12.61.23,1.05.56,1.34.97.29.41.43.84.44,1.27l-.23-.07Z"/>
    <path class="cls-2" d="m89.71,151.49c-.22,1.11-.47,2.49-.74,4.14-.27,1.64-.49,3.03-.65,4.16l-1.23-.21c.27-1.4.53-2.78.75-4.14.23-1.37.44-2.76.64-4.16l1.23.21Z"/>
    <path class="cls-2" d="m98.67,152.74c.64.41,1.12.94,1.44,1.59.32.65.47,1.34.46,2.06-.01.73-.19,1.41-.53,2.05-.34.64-.85,1.14-1.52,1.53-.67.38-1.48.56-2.43.55l-1.61-.03-1.25-.02c.06-1.43.11-2.83.13-4.21.02-1.39.03-2.79.01-4.21l1.25.02,1.76.03c.9.02,1.67.23,2.3.64Zm-3.01,7.52c.78.01,1.46-.16,2.02-.53.56-.36.99-.85,1.28-1.45.29-.6.44-1.25.45-1.94.01-.68-.12-1.33-.38-1.93s-.67-1.1-1.2-1.48-1.17-.57-1.93-.59h-1.32c-.06,1.61-.1,2.92-.11,3.93-.02,1.01-.02,2.33-.02,3.95l1.2.02Z"/>
    <path class="cls-2" d="m109.62,151.47c.71.28,1.28.7,1.73,1.27.44.57.73,1.21.86,1.92.13.72.1,1.42-.11,2.11-.21.69-.6,1.29-1.19,1.8-.58.51-1.34.85-2.27,1.03l-1.58.3-1.23.23c-.22-1.41-.46-2.79-.72-4.15-.26-1.36-.54-2.74-.84-4.13l1.23-.23,1.73-.32c.88-.17,1.68-.11,2.39.16Zm-1.43,7.97c.77-.15,1.4-.45,1.88-.92.48-.47.8-1.03.97-1.67.16-.65.18-1.31.05-1.99-.13-.67-.38-1.28-.76-1.82-.38-.54-.87-.94-1.47-1.21s-1.27-.33-2.01-.19l-1.3.26c.27,1.6.5,2.89.68,3.89.19.99.45,2.28.78,3.87l1.18-.22Z"/>
    <path class="cls-2" d="m121.19,146.94c.39,1.06.9,2.37,1.53,3.92.62,1.54,1.16,2.84,1.62,3.89l-1.16.47c-.36-.99-.83-2.18-1.39-3.59l-4.02,1.62c.57,1.41,1.06,2.59,1.48,3.55l-1.16.47c-.5-1.34-1-2.65-1.52-3.93-.52-1.29-1.06-2.58-1.63-3.88l1.16-.47c.51,1.35.93,2.44,1.26,3.27l.3.74,4.02-1.62-.3-.74c-.33-.83-.78-1.9-1.35-3.23l1.16-.47Z"/>
    <path class="cls-2" d="m125.54,144.5c.54,1,1.23,2.22,2.07,3.67.83,1.44,1.55,2.64,2.16,3.62l-1.08.63c-.68-1.25-1.37-2.48-2.06-3.67-.7-1.2-1.42-2.4-2.16-3.61l1.08-.63Z"/>
    <path class="cls-2" d="m136.54,136.41c.54-.15,1.04-.16,1.52-.04.48.13.88.36,1.2.71.31.33.51.72.61,1.17s.05.94-.14,1.45c-.19.51-.54,1.02-1.05,1.5l-1.39,1.32c.54.57,1.26,1.3,2.16,2.2l-.91.86c-.96-1.06-1.91-2.09-2.86-3.09-.96-1-1.94-2.01-2.95-3.01l.91-.86,1.34-1.28c.49-.47,1.01-.78,1.55-.93Zm1.78,4.79c.37-.35.61-.74.72-1.14.11-.41.11-.8,0-1.19-.11-.38-.31-.72-.6-1.02-.29-.31-.64-.53-1.04-.68s-.81-.18-1.23-.1-.82.29-1.18.64l-1.15,1.11c.73.81,1.55,1.68,2.44,2.61l.85.9,1.19-1.14Z"/>
    <path class="cls-2" d="m148.74,134.32c-.66-.22-1.5-.48-2.5-.78-.11-.04-.24-.08-.39-.13l-1.84,2.44,1.66,2.54-.18.24-4.9-7.48.34-.45c3.51,1.1,6.39,1.95,8.63,2.55l-.81,1.07Zm-4.9,1.29l1.72-2.27c-1.15-.35-2.48-.74-3.98-1.18l2.26,3.45Z"/>
    <path class="cls-2" d="m152.39,122.77c.39-.11.88-.19,1.46-.23.46-.03.83-.09,1.09-.15.26-.07.49-.2.67-.4-.03.32-.11.61-.24.88-.21.43-.51.68-.9.75-.12.04-.25.06-.4.07-.15,0-.38,0-.69,0-.4-.01-.72-.01-.99,0-.26,0-.52.07-.78.17-.25.1-.46.26-.61.49l-.02.03-1.02,2.11c.71.35,1.66.78,2.83,1.31l-.54,1.13c-1.27-.66-2.52-1.29-3.77-1.89-1.25-.6-2.52-1.2-3.82-1.78l.54-1.13.86-1.79c.3-.61.67-1.08,1.12-1.41s.92-.51,1.4-.55c.49-.04.94.04,1.37.25.5.24.88.61,1.13,1.11.26.5.33,1.07.2,1.7.33-.34.68-.57,1.08-.68Zm-6.92,1.5c.97.5,2.03,1.02,3.18,1.58l1.11.54.87-1.81c.02-.07.06-.16.12-.28.13-.36.16-.72.07-1.07-.08-.35-.24-.66-.49-.93s-.53-.49-.87-.66c-.38-.18-.78-.28-1.2-.28-.42,0-.81.11-1.17.33-.36.22-.66.56-.88,1.01l-.74,1.56Z"/>
    <path class="cls-2" d="m158.65,112.14c-.58.16-1.21.34-1.9.57-.69.22-1.36.45-2.02.67-.19.06-.39.12-.59.2s-.43.15-.66.22l.89,1.54c.83.22,1.91.48,3.24.8l-.32,1.21c-1.37-.4-2.72-.78-4.06-1.12-1.34-.35-2.7-.69-4.09-1.01l.32-1.21c1.51.43,2.75.77,3.71,1.02l.84.22-3.35-5.82.1-.38,2.1,3.69c1.45-.42,3.39-1.05,5.82-1.91.07-.02.14-.04.19-.06.05-.02.1-.04.15-.05l-.38,1.43Z"/>
    <path class="cls-2" d="m160.18,100.46c-.67.18-1.51.42-2.52.72-.11.02-.24.06-.39.11l-.2,3.05,2.78,1.21-.02.3-8.2-3.56.04-.57c3.53-1.01,6.4-1.88,8.62-2.61l-.09,1.34Zm-3.39,3.77l.19-2.85c-1.16.34-2.48.74-3.98,1.21l3.79,1.64Z"/>
    <path class="cls-2" d="m156.87,88.8c.27-.31.63-.64,1.09-1,.37-.28.64-.53.83-.73.18-.2.3-.44.34-.7.15.28.25.57.29.87.06.47-.05.84-.34,1.12-.08.1-.17.19-.3.28-.12.08-.31.21-.58.37-.34.21-.61.39-.83.54-.21.15-.4.34-.56.57s-.24.47-.24.75v.04s.31,2.33.31,2.33c.79-.1,1.81-.26,3.08-.46l.16,1.24c-1.42.15-2.82.31-4.18.49-1.38.18-2.76.39-4.17.61l-.16-1.24-.26-1.97c-.09-.68-.04-1.27.16-1.79s.48-.93.87-1.23c.38-.3.81-.48,1.28-.55.55-.07,1.07.03,1.56.3.49.27.86.71,1.11,1.31.08-.46.26-.85.53-1.16Zm-4.96,5.06c1.08-.12,2.26-.26,3.52-.43l1.22-.16-.26-1.99c-.02-.07-.04-.17-.05-.3-.09-.38-.27-.69-.53-.93-.26-.25-.56-.42-.92-.51s-.72-.12-1.09-.07c-.42.06-.81.2-1.16.43-.35.23-.62.54-.8.92-.18.38-.24.83-.17,1.33l.24,1.72Z"/>
  </g>
  <path class="cls-4" d="m63.92,145.55c-13.66-9.93-22.95-25.66-24.07-43.84-1.99-32.32,22.6-60.13,54.91-62.11,22.72-1.4,43.22,10.34,54.08,28.67"/>
  <path class="cls-2" d="m67.07,110.78c0-8.42,6.71-12.22,14.39-12.22v.75c-7.98,0-13.64,4.03-13.64,11.48s7.53,12.52,15.88,12.52c7.83,0,12.22-4.1,12.22-10.51,0-8.2-7.6-11.48-14.16-15.28-7.9-4.55-12.6-7.16-12.6-14.54s5.96-12.15,15.06-12.15c5.67,0,12.37.97,15.95,1.94v11.33c-3.58-6.71-9.69-12.52-15.95-12.52s-10.58,3.13-10.58,8.2c0,6.04,7.45,9.91,12.52,12.97,8.2,5.07,15.06,7.9,15.06,17.29,0,8.2-6.26,14.01-17.52,14.01-8.87,0-16.62-5.81-16.62-13.27Z"/>
  <path class="cls-2" d="m111.19,110.21v7.35c.71,2.69,4.17,3.61,6.29,4.24h-16.83c2.12-.64,4.38-2.19,4.88-4.24v-40.72c-.5-2.05-2.76-3.61-4.88-4.17h18.73c10.67,0,16.54,2.9,16.54,10.39,0,11.88-24.74,12.23-24.74,27.15Zm0-36.83v32.31c3.53-10.32,19.02-9.83,19.02-21.92,0-7.21-4.81-10.39-10.82-10.39h-8.2Z"/>
  <circle class="cls-1" cx="150.17" cy="70.47" r="3.37"/>
  <circle class="cls-3" cx="63.69" cy="145.71" r="3.37"/>
</svg>